<svg xmlns="http://www.w3.org/2000/svg" viewBox="0 0 1200 675" width="1200" height="675" role="img"><defs><radialGradient id="glow" cx="50%" cy="50%"><stop offset="0%" stop-color="#dc2626" stop-opacity=".22"/><stop offset="100%" stop-color="#dc2626" stop-opacity="0"/></radialGradient><filter id="grain"><feTurbulence type="fractalNoise" baseFrequency=".8" numOctaves="4"/></filter><pattern id="grid" width="48" height="48" patternUnits="userSpaceOnUse"><path d="M48 0H0v48" fill="none" stroke="#1b1b20" stroke-width="1"/></pattern></defs><style>@media (prefers-reduced-motion: reduce) { * { animation: none !important; } }.pk{animation:fl 3.2s linear infinite}.pk2{animation-delay:1.1s}.pk3{animation-delay:2.2s}@keyframes fl{0%{offset-distance:0%;opacity:0}12%{opacity:1}88%{opacity:1}100%{offset-distance:100%;opacity:0}}.bad{animation:th 2s ease-in-out infinite}@keyframes th{50%{opacity:.45}}</style><rect width="1200" height="675" fill="#0a0a0b"/><rect width="1200" height="675" fill="url(#grid)"/><ellipse cx="600" cy="337" rx="576" ry="371" fill="url(#glow)"/><g font-family="monospace" font-size="14"><rect x="120" y="300" width="160" height="76" rx="4" fill="#101014" stroke="#6b665c"/><text x="142" y="332" fill="#e9e5db" font-size="13">SOHO ROUTER</text><text x="142" y="356" fill="#6b665c" font-size="12">TP-Link WR841N</text><path d="M200,338 C420,338 470,180 700,180" fill="none" stroke="#dc2626" stroke-width="1.5" stroke-dasharray="4 6" opacity=".55"/><path d="M200,338 C420,338 470,500 700,500" fill="none" stroke="#6b665c" stroke-width="1" stroke-dasharray="3 8" opacity=".3"/><circle class="pk " r="5" fill="#fca5a5" style="offset-path:path('M200,338 C420,338 470,180 700,180')"/><circle class="pk pk2" r="5" fill="#fca5a5" style="offset-path:path('M200,338 C420,338 470,180 700,180')"/><circle class="pk pk3" r="5" fill="#fca5a5" style="offset-path:path('M200,338 C420,338 470,180 700,180')"/><g class="bad"><rect x="700" y="145" width="220" height="70" rx="4" fill="#17171d" stroke="#dc2626" stroke-width="1.5"/><text x="722" y="176" fill="#dc2626" font-size="13">HOSTILE DNS</text><text x="722" y="198" fill="#6b665c" font-size="11">outlook.com -> AitM</text></g><rect x="700" y="468" width="220" height="64" rx="4" fill="#101014" stroke="#6b665c" opacity=".4"/><text x="722" y="497" fill="#6b665c" font-size="13">legitimate DNS</text><text x="722" y="517" fill="#6b665c" font-size="11" opacity=".6">never reached</text></g><rect width="1200" height="675" filter="url(#grain)" opacity=".05"/></svg>