<svg xmlns="http://www.w3.org/2000/svg" viewBox="0 0 1200 675" width="1200" height="675" role="img"><defs><radialGradient id="glow" cx="50%" cy="50%"><stop offset="0%" stop-color="#dc2626" stop-opacity=".22"/><stop offset="100%" stop-color="#dc2626" stop-opacity="0"/></radialGradient><filter id="grain"><feTurbulence type="fractalNoise" baseFrequency=".8" numOctaves="4"/></filter><pattern id="grid" width="48" height="48" patternUnits="userSpaceOnUse"><path d="M48 0H0v48" fill="none" stroke="#1b1b20" stroke-width="1"/></pattern></defs><style>@media (prefers-reduced-motion: reduce) { * { animation: none !important; } }.up{animation:uf 4s ease-in-out infinite}@keyframes uf{0%,25%{opacity:.25}45%,80%{opacity:1}100%{opacity:.25}}.adm{animation:ad 4s ease-in-out infinite}@keyframes ad{0%,55%{fill:#6b665c}70%,100%{fill:#dc2626}}</style><rect width="1200" height="675" fill="#0a0a0b"/><rect width="1200" height="675" fill="url(#grid)"/><ellipse cx="600" cy="337" rx="576" ry="371" fill="url(#glow)"/><g font-family="monospace" font-size="13"><rect x="96" y="250" width="200" height="150" rx="4" fill="#101014" stroke="#6b665c"/><text x="118" y="284" fill="#e9e5db" font-size="12">ATTACKER</text><text x="118" y="326" fill="#6b665c" font-size="11">POST asset.uploadCustomIcon</text><text x="118" y="348" fill="#dc2626" font-size="11">no authentication</text><g class="up"><path d="M296,320 L470,320" stroke="#dc2626" stroke-width="1.5" stroke-dasharray="5 5"/><text x="322" y="310" fill="#dc2626" font-size="11">uploads shell.php</text></g><rect x="470" y="250" width="248" height="150" rx="4" fill="#101014" stroke="#6b665c"/><text x="492" y="284" fill="#e9e5db" font-size="12">Joomla extension</text><text x="492" y="326" fill="#6b665c" font-size="11">file written under web root</text><text x="492" y="348" fill="#dc2626" font-size="11">RCE: web shell executed</text><path d="M718,320 L840,320" stroke="#6b665c" stroke-width="1.5" stroke-dasharray="4 6"/><rect x="840" y="256" width="240" height="138" rx="4" fill="#17171d" stroke="#6b665c"/><text x="862" y="288" fill="#e9e5db" font-size="12">hidden Super User</text><text class="adm" x="862" y="322" font-size="12" fill="#6b665c">@secure.local email</text><text x="862" y="360" fill="#6b665c" font-size="10">CVE-2026-48908 · CVSS 10.0</text><text x="96" y="452" fill="#6b665c" font-size="11">four extensions, one pattern: unauthenticated upload -> RCE</text></g><rect width="1200" height="675" filter="url(#grain)" opacity=".05"/></svg>