<svg xmlns="http://www.w3.org/2000/svg" viewBox="0 0 1200 675" width="1200" height="675" role="img"><defs><radialGradient id="glow" cx="50%" cy="50%"><stop offset="0%" stop-color="#ea580c" stop-opacity=".22"/><stop offset="100%" stop-color="#ea580c" stop-opacity="0"/></radialGradient><filter id="grain"><feTurbulence type="fractalNoise" baseFrequency=".8" numOctaves="4"/></filter><pattern id="grid" width="48" height="48" patternUnits="userSpaceOnUse"><path d="M48 0H0v48" fill="none" stroke="#1b1b20" stroke-width="1"/></pattern></defs><style>@media (prefers-reduced-motion: reduce) { * { animation: none !important; } }.qc{animation:qf 5s ease-in-out infinite}@keyframes qf{0%,55%{fill:#e9e5db}70%,85%{fill:#ea580c}100%{fill:#e9e5db}}.scan{animation:sc 5s ease-in-out infinite}@keyframes sc{0%,45%{opacity:0;transform:translateY(0)}55%{opacity:1}80%{opacity:1;transform:translateY(286px)}90%,100%{opacity:0}}.ph{animation:pp 5s ease-in-out infinite}@keyframes pp{0%,60%{stroke:#6b665c}75%,100%{stroke:#ea580c}}</style><rect width="1200" height="675" fill="#0a0a0b"/><rect width="1200" height="675" fill="url(#grid)"/><ellipse cx="600" cy="337" rx="576" ry="371" fill="url(#glow)"/><g transform="translate(300,196)"><rect class="qc" x="0" y="0" width="22" height="22" fill="#e9e5db" style="animation-delay:0.00s"/><rect class="qc" x="26" y="0" width="22" height="22" fill="#e9e5db" style="animation-delay:0.06s"/><rect class="qc" x="52" y="0" width="22" height="22" fill="#e9e5db" style="animation-delay:0.12s"/><rect class="qc" x="130" y="0" width="22" height="22" fill="#e9e5db" style="animation-delay:0.30s"/><rect class="qc" x="182" y="0" width="22" height="22" fill="#e9e5db" style="animation-delay:0.42s"/><rect class="qc" x="208" y="0" width="22" height="22" fill="#e9e5db" style="animation-delay:0.48s"/><rect class="qc" x="234" y="0" width="22" height="22" fill="#e9e5db" style="animation-delay:0.54s"/><rect class="qc" x="260" y="0" width="22" height="22" fill="#e9e5db" style="animation-delay:0.60s"/><rect class="qc" x="0" y="26" width="22" height="22" fill="#e9e5db" style="animation-delay:0.06s"/><rect class="qc" x="26" y="26" width="22" height="22" fill="#e9e5db" style="animation-delay:0.12s"/><rect class="qc" x="52" y="26" width="22" height="22" fill="#e9e5db" style="animation-delay:0.18s"/><rect class="qc" x="78" y="26" width="22" height="22" fill="#e9e5db" style="animation-delay:0.24s"/><rect class="qc" x="104" y="26" width="22" height="22" fill="#e9e5db" style="animation-delay:0.30s"/><rect class="qc" x="182" y="26" width="22" height="22" fill="#e9e5db" style="animation-delay:0.48s"/><rect class="qc" x="208" y="26" width="22" height="22" fill="#e9e5db" style="animation-delay:0.54s"/><rect class="qc" x="234" y="26" width="22" height="22" fill="#e9e5db" style="animation-delay:0.60s"/><rect class="qc" x="260" y="26" width="22" height="22" fill="#e9e5db" style="animation-delay:0.66s"/><rect class="qc" x="0" y="52" width="22" height="22" fill="#e9e5db" style="animation-delay:0.12s"/><rect class="qc" x="26" y="52" width="22" height="22" fill="#e9e5db" style="animation-delay:0.18s"/><rect class="qc" x="52" y="52" width="22" height="22" fill="#e9e5db" style="animation-delay:0.24s"/><rect class="qc" x="104" y="52" width="22" height="22" fill="#e9e5db" style="animation-delay:0.36s"/><rect class="qc" x="182" y="52" width="22" height="22" fill="#e9e5db" style="animation-delay:0.54s"/><rect class="qc" x="208" y="52" width="22" height="22" fill="#e9e5db" style="animation-delay:0.60s"/><rect class="qc" x="234" y="52" width="22" height="22" fill="#e9e5db" style="animation-delay:0.66s"/><rect class="qc" x="260" y="52" width="22" height="22" fill="#e9e5db" style="animation-delay:0.72s"/><rect class="qc" x="0" y="78" width="22" height="22" fill="#e9e5db" style="animation-delay:0.18s"/><rect class="qc" x="104" y="78" width="22" height="22" fill="#e9e5db" style="animation-delay:0.42s"/><rect class="qc" x="130" y="78" width="22" height="22" fill="#e9e5db" style="animation-delay:0.48s"/><rect class="qc" x="182" y="78" width="22" height="22" fill="#e9e5db" style="animation-delay:0.60s"/><rect class="qc" x="208" y="78" width="22" height="22" fill="#e9e5db" style="animation-delay:0.66s"/><rect class="qc" x="78" y="104" width="22" height="22" fill="#e9e5db" style="animation-delay:0.42s"/><rect class="qc" x="130" y="104" width="22" height="22" fill="#e9e5db" style="animation-delay:0.54s"/><rect class="qc" x="182" y="104" width="22" height="22" fill="#e9e5db" style="animation-delay:0.66s"/><rect class="qc" x="234" y="104" width="22" height="22" fill="#e9e5db" style="animation-delay:0.78s"/><rect class="qc" x="260" y="104" width="22" height="22" fill="#e9e5db" style="animation-delay:0.84s"/><rect class="qc" x="26" y="130" width="22" height="22" fill="#e9e5db" style="animation-delay:0.36s"/><rect class="qc" x="78" y="130" width="22" height="22" fill="#e9e5db" style="animation-delay:0.48s"/><rect class="qc" x="104" y="130" width="22" height="22" fill="#e9e5db" style="animation-delay:0.54s"/><rect class="qc" x="130" y="130" width="22" height="22" fill="#e9e5db" style="animation-delay:0.60s"/><rect class="qc" x="156" y="130" width="22" height="22" fill="#e9e5db" style="animation-delay:0.66s"/><rect class="qc" x="182" y="130" width="22" height="22" fill="#e9e5db" style="animation-delay:0.72s"/><rect class="qc" x="234" y="130" width="22" height="22" fill="#e9e5db" style="animation-delay:0.84s"/><rect class="qc" x="26" y="156" width="22" height="22" fill="#e9e5db" style="animation-delay:0.42s"/><rect class="qc" x="208" y="156" width="22" height="22" fill="#e9e5db" style="animation-delay:0.84s"/><rect class="qc" x="234" y="156" width="22" height="22" fill="#e9e5db" style="animation-delay:0.90s"/><rect class="qc" x="0" y="182" width="22" height="22" fill="#e9e5db" style="animation-delay:0.42s"/><rect class="qc" x="26" y="182" width="22" height="22" fill="#e9e5db" style="animation-delay:0.48s"/><rect class="qc" x="130" y="182" width="22" height="22" fill="#e9e5db" style="animation-delay:0.72s"/><rect class="qc" x="156" y="182" width="22" height="22" fill="#e9e5db" style="animation-delay:0.78s"/><rect class="qc" x="234" y="182" width="22" height="22" fill="#e9e5db" style="animation-delay:0.96s"/><rect class="qc" x="260" y="182" width="22" height="22" fill="#e9e5db" style="animation-delay:1.02s"/><rect class="qc" x="0" y="208" width="22" height="22" fill="#e9e5db" style="animation-delay:0.48s"/><rect class="qc" x="26" y="208" width="22" height="22" fill="#e9e5db" style="animation-delay:0.54s"/><rect class="qc" x="52" y="208" width="22" height="22" fill="#e9e5db" style="animation-delay:0.60s"/><rect class="qc" x="78" y="208" width="22" height="22" fill="#e9e5db" style="animation-delay:0.66s"/><rect class="qc" x="104" y="208" width="22" height="22" fill="#e9e5db" style="animation-delay:0.72s"/><rect class="qc" x="156" y="208" width="22" height="22" fill="#e9e5db" style="animation-delay:0.84s"/><rect class="qc" x="208" y="208" width="22" height="22" fill="#e9e5db" style="animation-delay:0.96s"/><rect class="qc" x="0" y="234" width="22" height="22" fill="#e9e5db" style="animation-delay:0.54s"/><rect class="qc" x="26" y="234" width="22" height="22" fill="#e9e5db" style="animation-delay:0.60s"/><rect class="qc" x="52" y="234" width="22" height="22" fill="#e9e5db" style="animation-delay:0.66s"/><rect class="qc" x="78" y="234" width="22" height="22" fill="#e9e5db" style="animation-delay:0.72s"/><rect class="qc" x="104" y="234" width="22" height="22" fill="#e9e5db" style="animation-delay:0.78s"/><rect class="qc" x="130" y="234" width="22" height="22" fill="#e9e5db" style="animation-delay:0.84s"/><rect class="qc" x="208" y="234" width="22" height="22" fill="#e9e5db" style="animation-delay:1.02s"/><rect class="qc" x="234" y="234" width="22" height="22" fill="#e9e5db" style="animation-delay:1.08s"/><rect class="qc" x="260" y="234" width="22" height="22" fill="#e9e5db" style="animation-delay:1.14s"/><rect class="qc" x="0" y="260" width="22" height="22" fill="#e9e5db" style="animation-delay:0.60s"/><rect class="qc" x="26" y="260" width="22" height="22" fill="#e9e5db" style="animation-delay:0.66s"/><rect class="qc" x="52" y="260" width="22" height="22" fill="#e9e5db" style="animation-delay:0.72s"/><rect class="qc" x="78" y="260" width="22" height="22" fill="#e9e5db" style="animation-delay:0.78s"/><rect class="qc" x="104" y="260" width="22" height="22" fill="#e9e5db" style="animation-delay:0.84s"/><rect class="qc" x="130" y="260" width="22" height="22" fill="#e9e5db" style="animation-delay:0.90s"/><rect class="qc" x="156" y="260" width="22" height="22" fill="#e9e5db" style="animation-delay:0.96s"/><rect class="qc" x="182" y="260" width="22" height="22" fill="#e9e5db" style="animation-delay:1.02s"/><rect class="qc" x="260" y="260" width="22" height="22" fill="#e9e5db" style="animation-delay:1.20s"/><rect class="scan" x="-8" y="0" width="302" height="3" fill="#ea580c"/></g><g transform="translate(700,170)" font-family="monospace"><rect class="ph" width="170" height="290" rx="18" fill="#0d0d11" stroke="#6b665c" stroke-width="2"/><rect x="12" y="30" width="146" height="230" rx="3" fill="#15151b"/><text x="26" y="70" font-size="11" fill="#6b665c">personal</text><text x="26" y="90" font-size="11" fill="#6b665c">phone</text><text x="26" y="130" font-size="10" fill="#ea580c">outside the</text><text x="26" y="146" font-size="10" fill="#ea580c">IT perimeter</text><text x="26" y="186" font-size="10" fill="#6b665c">no proxy</text><text x="26" y="204" font-size="10" fill="#6b665c">no gateway</text><text x="26" y="222" font-size="10" fill="#6b665c">no EDR</text><circle cx="85" cy="274" r="6" fill="none" stroke="#6b665c"/></g><rect width="1200" height="675" filter="url(#grain)" opacity=".05"/></svg>