<svg xmlns="http://www.w3.org/2000/svg" viewBox="0 0 1200 675" width="1200" height="675" role="img"><defs><radialGradient id="glow" cx="50%" cy="50%"><stop offset="0%" stop-color="#dc2626" stop-opacity=".22"/><stop offset="100%" stop-color="#dc2626" stop-opacity="0"/></radialGradient><filter id="grain"><feTurbulence type="fractalNoise" baseFrequency=".8" numOctaves="4"/></filter><pattern id="grid" width="48" height="48" patternUnits="userSpaceOnUse"><path d="M48 0H0v48" fill="none" stroke="#1b1b20" stroke-width="1"/></pattern></defs><style>@media (prefers-reduced-motion: reduce) { * { animation: none !important; } }.c{animation:off 6s ease-in-out infinite}@keyframes off{0%,12%{fill:#fca5a5;opacity:.85}30%,100%{fill:#1e1e24;opacity:.5}}.ecg{stroke-dasharray:600;animation:flat 6s ease-in-out infinite}@keyframes flat{0%{stroke-dashoffset:600}40%{stroke-dashoffset:0}100%{stroke-dashoffset:0}}</style><rect width="1200" height="675" fill="#0a0a0b"/><rect width="1200" height="675" fill="url(#grid)"/><ellipse cx="600" cy="337" rx="576" ry="371" fill="url(#glow)"/><g font-family="monospace"><text x="150" y="215" fill="#6b665c" font-size="12">35 CLINICAL SITES — MISSISSIPPI</text><rect class="c" x="150" y="250" width="44" height="44" rx="3" fill="#fca5a5" style="animation-delay:0.00s"/><rect class="c" x="212" y="250" width="44" height="44" rx="3" fill="#fca5a5" style="animation-delay:0.09s"/><rect class="c" x="274" y="250" width="44" height="44" rx="3" fill="#fca5a5" style="animation-delay:0.18s"/><rect class="c" x="336" y="250" width="44" height="44" rx="3" fill="#fca5a5" style="animation-delay:0.27s"/><rect class="c" x="398" y="250" width="44" height="44" rx="3" fill="#fca5a5" style="animation-delay:0.36s"/><rect class="c" x="460" y="250" width="44" height="44" rx="3" fill="#fca5a5" style="animation-delay:0.45s"/><rect class="c" x="522" y="250" width="44" height="44" rx="3" fill="#fca5a5" style="animation-delay:0.54s"/><rect class="c" x="150" y="312" width="44" height="44" rx="3" fill="#fca5a5" style="animation-delay:0.63s"/><rect class="c" x="212" y="312" width="44" height="44" rx="3" fill="#fca5a5" style="animation-delay:0.72s"/><rect class="c" x="274" y="312" width="44" height="44" rx="3" fill="#fca5a5" style="animation-delay:0.81s"/><rect class="c" x="336" y="312" width="44" height="44" rx="3" fill="#fca5a5" style="animation-delay:0.90s"/><rect class="c" x="398" y="312" width="44" height="44" rx="3" fill="#fca5a5" style="animation-delay:0.99s"/><rect class="c" x="460" y="312" width="44" height="44" rx="3" fill="#fca5a5" style="animation-delay:1.08s"/><rect class="c" x="522" y="312" width="44" height="44" rx="3" fill="#fca5a5" style="animation-delay:1.17s"/><rect class="c" x="150" y="374" width="44" height="44" rx="3" fill="#fca5a5" style="animation-delay:1.26s"/><rect class="c" x="212" y="374" width="44" height="44" rx="3" fill="#fca5a5" style="animation-delay:1.35s"/><rect class="c" x="274" y="374" width="44" height="44" rx="3" fill="#fca5a5" style="animation-delay:1.44s"/><rect class="c" x="336" y="374" width="44" height="44" rx="3" fill="#fca5a5" style="animation-delay:1.53s"/><rect class="c" x="398" y="374" width="44" height="44" rx="3" fill="#fca5a5" style="animation-delay:1.62s"/><rect class="c" x="460" y="374" width="44" height="44" rx="3" fill="#fca5a5" style="animation-delay:1.71s"/><rect class="c" x="522" y="374" width="44" height="44" rx="3" fill="#fca5a5" style="animation-delay:1.80s"/><rect class="c" x="150" y="436" width="44" height="44" rx="3" fill="#fca5a5" style="animation-delay:1.89s"/><rect class="c" x="212" y="436" width="44" height="44" rx="3" fill="#fca5a5" style="animation-delay:1.98s"/><rect class="c" x="274" y="436" width="44" height="44" rx="3" fill="#fca5a5" style="animation-delay:2.07s"/><rect class="c" x="336" y="436" width="44" height="44" rx="3" fill="#fca5a5" style="animation-delay:2.16s"/><rect class="c" x="398" y="436" width="44" height="44" rx="3" fill="#fca5a5" style="animation-delay:2.25s"/><rect class="c" x="460" y="436" width="44" height="44" rx="3" fill="#fca5a5" style="animation-delay:2.34s"/><rect class="c" x="522" y="436" width="44" height="44" rx="3" fill="#fca5a5" style="animation-delay:2.43s"/><rect class="c" x="150" y="498" width="44" height="44" rx="3" fill="#fca5a5" style="animation-delay:2.52s"/><rect class="c" x="212" y="498" width="44" height="44" rx="3" fill="#fca5a5" style="animation-delay:2.61s"/><rect class="c" x="274" y="498" width="44" height="44" rx="3" fill="#fca5a5" style="animation-delay:2.70s"/><rect class="c" x="336" y="498" width="44" height="44" rx="3" fill="#fca5a5" style="animation-delay:2.79s"/><rect class="c" x="398" y="498" width="44" height="44" rx="3" fill="#fca5a5" style="animation-delay:2.88s"/><rect class="c" x="460" y="498" width="44" height="44" rx="3" fill="#fca5a5" style="animation-delay:2.97s"/><rect class="c" x="522" y="498" width="44" height="44" rx="3" fill="#fca5a5" style="animation-delay:3.06s"/><path class="ecg" d="M660,380 L740,380 L756,340 L772,420 L788,380 L1050,380" fill="none" stroke="#dc2626" stroke-width="2"/><text x="660" y="430" fill="#6b665c" font-size="11">9 days on paper</text><text x="660" y="452" fill="#dc2626" font-size="11">infusion clinic rebuilt offline</text><text x="150" y="560" fill="#6b665c" font-size="11">ransomware as a clinical event, not an IT one</text></g><rect width="1200" height="675" filter="url(#grain)" opacity=".05"/></svg>