<svg xmlns="http://www.w3.org/2000/svg" viewBox="0 0 1200 675" width="1200" height="675" role="img"><defs><radialGradient id="glow" cx="50%" cy="50%"><stop offset="0%" stop-color="#dc2626" stop-opacity=".22"/><stop offset="100%" stop-color="#dc2626" stop-opacity="0"/></radialGradient><filter id="grain"><feTurbulence type="fractalNoise" baseFrequency=".8" numOctaves="4"/></filter><pattern id="grid" width="48" height="48" patternUnits="userSpaceOnUse"><path d="M48 0H0v48" fill="none" stroke="#1b1b20" stroke-width="1"/></pattern></defs><style>@media (prefers-reduced-motion: reduce) { * { animation: none !important; } }.req{animation:rf 3.4s linear infinite}@keyframes rf{0%{offset-distance:0%;opacity:0}12%{opacity:1}88%{opacity:1}100%{offset-distance:100%;opacity:0}}.gap{animation:gp 3.4s ease-in-out infinite}@keyframes gp{0%,55%{opacity:.35}70%,100%{opacity:1}}.cur{animation:blink 1s steps(1) infinite}@keyframes blink{50%{opacity:0}}.eng{animation:eg 4s ease-in-out infinite}@keyframes eg{0%,55%{stroke:#6b665c}70%,100%{stroke:#dc2626}}</style><rect width="1200" height="675" fill="#0a0a0b"/><rect width="1200" height="675" fill="url(#grid)"/><ellipse cx="600" cy="337" rx="576" ry="371" fill="url(#glow)"/><g font-family="monospace"><text x="90" y="150" font-size="13" fill="#6b665c">Oracle E-Business Suite — Oracle Payments module</text><rect x="90" y="180" width="210" height="92" rx="4" fill="#17171d" stroke="#dc2626" stroke-width="1.5"/><text x="112" y="212" font-size="14" fill="#e9e5db">ATTACKER</text><text x="112" y="238" font-size="12" fill="#dc2626">POST /OA_HTML/ibytransmit</text><text x="112" y="258" font-size="11" fill="#6b665c">no authentication</text><path d="M300,214 C440,214 470,214 560,214" fill="none" stroke="#6b665c" stroke-width="1.5" stroke-dasharray="4 6" opacity=".55"/><circle class="req" r="5" fill="#fca5a5" style="offset-path:path('M300,214 C440,214 470,214 560,214');animation-delay:0.0s"/><circle class="req" r="5" fill="#fca5a5" style="offset-path:path('M300,214 C440,214 470,214 560,214');animation-delay:1.1s"/><circle class="req" r="5" fill="#fca5a5" style="offset-path:path('M300,214 C440,214 470,214 560,214');animation-delay:2.2s"/><rect class="eng" x="560" y="150" width="330" height="150" rx="4" fill="#101014" stroke="#6b665c" stroke-width="1.5"/><text x="584" y="186" font-size="14" fill="#e9e5db">File Transmission</text><text x="584" y="210" font-size="11" fill="#6b665c">internal Java function called directly</text><g class="gap" transform="translate(584,232)"><rect x="0" y="10" width="26" height="20" rx="3" fill="none" stroke="#dc2626" stroke-width="2"/><path d="M5 10 v-5 a8 8 0 0 1 16 0" fill="none" stroke="#dc2626" stroke-width="2"/><text x="38" y="26" font-size="12" fill="#dc2626">access control: absent</text></g><g transform="translate(560,330)"><rect width="540" height="72" rx="4" fill="#0d0d11" stroke="#6b665c"/><text x="20" y="30" font-size="13" fill="#6f8f3a">cat /etc/passwd</text><rect class="cur" x="196" y="18" width="8" height="15" fill="#e9e5db"/><text x="20" y="54" font-size="11" fill="#6b665c">then: config, keys, payment APIs</text></g><text x="746" y="326" font-size="20" fill="#6b665c">&#8595;</text><g transform="translate(560,428)"><rect width="540" height="78" rx="4" fill="#1d0f08" stroke="#dc2626" stroke-width="1.5"/><text x="20" y="34" font-size="15" fill="#dc2626">Oracle Payments</text><text x="20" y="58" font-size="12" fill="#e9e5db">banks · card networks</text></g><text x="90" y="470" font-size="12" fill="#6b665c">CVE-2026-46817 · CVSS 9.8</text><text x="90" y="560" font-size="12" fill="#6b665c">the module that moves the payments, taken without a login</text></g><rect width="1200" height="675" filter="url(#grain)" opacity=".05"/></svg>