<svg xmlns="http://www.w3.org/2000/svg" viewBox="0 0 1200 675" width="1200" height="675" role="img"><defs><radialGradient id="glow" cx="50%" cy="50%"><stop offset="0%" stop-color="#dc2626" stop-opacity=".22"/><stop offset="100%" stop-color="#dc2626" stop-opacity="0"/></radialGradient><filter id="grain"><feTurbulence type="fractalNoise" baseFrequency=".8" numOctaves="4"/></filter><pattern id="grid" width="48" height="48" patternUnits="userSpaceOnUse"><path d="M48 0H0v48" fill="none" stroke="#1b1b20" stroke-width="1"/></pattern></defs><style>@media (prefers-reduced-motion: reduce) { * { animation: none !important; } }.wake{animation:wk 5s ease-in-out infinite}@keyframes wk{0%,45%{stroke:#6b665c;opacity:.35}60%,100%{stroke:#dc2626;opacity:1}}.probe{opacity:1;animation:pb 5s ease-in-out infinite}@keyframes pb{0%,50%{opacity:.35}65%,90%{opacity:1}100%{opacity:.35}}</style><rect width="1200" height="675" fill="#0a0a0b"/><rect width="1200" height="675" fill="url(#grid)"/><ellipse cx="600" cy="337" rx="576" ry="371" fill="url(#glow)"/><g font-family="monospace" font-size="12"><text x="130" y="180" fill="#6b665c" font-size="11">STAGE 1 — dormant (5 years)</text><g opacity=".4"><rect x="130" y="200" width="170" height="56" rx="3" fill="#101014" stroke="#6b665c"/><text x="150" y="234" fill="#6b665c">living off the land</text></g><path d="M300,228 L420,228" stroke="#6b665c" stroke-dasharray="3 6"/><g class="wake"><rect x="420" y="196" width="200" height="64" rx="3" fill="#101014" stroke="#6b665c" stroke-width="1.5"/></g><text x="442" y="234" fill="#fca5a5">ENG workstation</text><g class="probe"><path d="M620,228 L790,228" stroke="#dc2626" stroke-width="1.5"/><rect x="790" y="196" width="240" height="64" rx="3" fill="#1d0f08" stroke="#dc2626"/><text x="812" y="222" fill="#dc2626" font-size="11">what conditions</text><text x="812" y="244" fill="#dc2626" font-size="11">stop the plant?</text></g><g stroke="#6b665c" fill="none" opacity=".5"><circle cx="300" cy="450" r="34"/><circle cx="420" cy="450" r="34"/><circle cx="540" cy="450" r="34"/><path d="M334,450 h52 M454,450 h52"/></g><text x="130" y="536" fill="#6b665c" font-size="11">the one that hid for years started testing the switches</text></g><rect width="1200" height="675" filter="url(#grain)" opacity=".05"/></svg>