<svg xmlns="http://www.w3.org/2000/svg" viewBox="0 0 1200 675" width="1200" height="675" role="img"><defs><radialGradient id="glow" cx="50%" cy="50%"><stop offset="0%" stop-color="#ea580c" stop-opacity=".22"/><stop offset="100%" stop-color="#ea580c" stop-opacity="0"/></radialGradient><filter id="grain"><feTurbulence type="fractalNoise" baseFrequency=".8" numOctaves="4"/></filter><pattern id="grid" width="48" height="48" patternUnits="userSpaceOnUse"><path d="M48 0H0v48" fill="none" stroke="#1b1b20" stroke-width="1"/></pattern></defs><style>@media (prefers-reduced-motion: reduce) { * { animation: none !important; } }.pk{animation:fw 3.6s linear infinite}.pk2{animation-delay:1.2s}.pk3{animation-delay:2.4s}@keyframes fw{0%{offset-distance:0%;opacity:0}10%{opacity:1}90%{opacity:1}100%{offset-distance:100%;opacity:0}}.tap{animation:tp 2.6s ease-in-out infinite}@keyframes tp{50%{opacity:.4}}.lp{animation:dash 2.4s linear infinite}@keyframes dash{100%{stroke-dashoffset:-28}}.fw{animation:brd 4s ease-in-out infinite}@keyframes brd{0%,55%{stroke:#6b665c}70%,100%{stroke:#ea580c}}</style><rect width="1200" height="675" fill="#0a0a0b"/><rect width="1200" height="675" fill="url(#grid)"/><ellipse cx="600" cy="337" rx="576" ry="371" fill="url(#glow)"/><g font-family="monospace"><text x="90" y="236" font-size="12" fill="#6b665c">traffico di autenticazione</text><path d="M90,262 C300,262 380,262 1110,262" fill="none" stroke="#6b665c" stroke-width="1.5" stroke-dasharray="4 6" opacity=".5"/><circle class="pk " r="5" fill="#fdba74" style="offset-path:path('M90,262 C300,262 380,262 1110,262')"/><circle class="pk pk2" r="5" fill="#fdba74" style="offset-path:path('M90,262 C300,262 380,262 1110,262')"/><circle class="pk pk3" r="5" fill="#fdba74" style="offset-path:path('M90,262 C300,262 380,262 1110,262')"/><rect class="fw" x="480" y="212" width="240" height="100" rx="4" fill="#101014" stroke="#6b665c" stroke-width="1.5"/><text x="504" y="252" font-size="14" fill="#e9e5db">FortiGate — perimetro</text><text x="504" y="278" font-size="11" fill="#6b665c">FortiOS · SSL VPN</text><g class="tap"><path d="M600,312 L600,404 M594,394 l6,10 l6,-10" fill="none" stroke="#ea580c" stroke-width="1.5"/></g><rect x="380" y="404" width="440" height="126" rx="4" fill="#17171d" stroke="#ea580c" stroke-width="1.5"/><text x="398" y="434" font-size="14" fill="#ea580c">diagnose sniffer packet</text><text x="398" y="456" font-size="11" fill="#6b665c">comando nativo — nessun malware sul disco</text><rect x="398" y="470" width="118" height="34" rx="3" fill="#17171d" stroke="#6b665c"/><text x="416" y="493" font-size="13" fill="#fdba74">RADIUS</text><rect x="528" y="470" width="118" height="34" rx="3" fill="#17171d" stroke="#6b665c"/><text x="546" y="493" font-size="13" fill="#fdba74">NTLM</text><rect x="658" y="470" width="118" height="34" rx="3" fill="#17171d" stroke="#6b665c"/><text x="676" y="493" font-size="13" fill="#fdba74">Kerberos</text><text x="836" y="470" font-size="18" fill="#6b665c">-&gt;</text><rect x="872" y="428" width="238" height="86" rx="4" fill="#101014" stroke="#6b665c"/><text x="894" y="464" font-size="13" fill="#e9e5db">credenziali valide</text><text x="894" y="490" font-size="12" fill="#ea580c">110M+ raccolte</text><path class="lp" d="M991,428 C991,352 700,344 380,344 C220,344 120,300 96,268" fill="none" stroke="#ea580c" stroke-width="1.2" stroke-dasharray="6 8" opacity=".65"/><text x="150" y="330" font-size="11" fill="#ea580c">ogni vittima recluta la prossima</text><text x="90" y="600" font-size="12" fill="#6b665c">non c'e' una CVE: non c'e' niente da patchare</text></g><rect width="1200" height="675" filter="url(#grain)" opacity=".05"/></svg>