<svg xmlns="http://www.w3.org/2000/svg" viewBox="0 0 1200 675" width="1200" height="675" role="img"><defs><radialGradient id="glow" cx="50%" cy="50%"><stop offset="0%" stop-color="#dc2626" stop-opacity=".22"/><stop offset="100%" stop-color="#dc2626" stop-opacity="0"/></radialGradient><filter id="grain"><feTurbulence type="fractalNoise" baseFrequency=".8" numOctaves="4"/></filter><pattern id="grid" width="48" height="48" patternUnits="userSpaceOnUse"><path d="M48 0H0v48" fill="none" stroke="#1b1b20" stroke-width="1"/></pattern></defs><style>@media (prefers-reduced-motion: reduce) { * { animation: none !important; } }.req{animation:rq 3.6s linear infinite}@keyframes rq{0%{offset-distance:0%;opacity:0}12%{opacity:1}82%{opacity:1}100%{offset-distance:100%;opacity:0}}.hit{animation:ht 4s ease-in-out infinite}@keyframes ht{0%,55%{stroke:#6b665c;fill:#101014}72%,100%{stroke:#dc2626;fill:#1d0f08}}.cur{animation:bl 1.1s steps(1) infinite}@keyframes bl{50%{opacity:0}}</style><rect width="1200" height="675" fill="#0a0a0b"/><rect width="1200" height="675" fill="url(#grid)"/><ellipse cx="600" cy="337" rx="576" ry="371" fill="url(#glow)"/><g font-family="monospace"><text x="90" y="206" font-size="13" fill="#6b665c">FortiSandbox — appliance di detonazione malware</text><rect x="90" y="250" width="210" height="120" rx="4" fill="#101014" stroke="#6b665c"/><text x="112" y="284" font-size="14" fill="#e9e5db">ATTACCANTE</text><text x="112" y="314" font-size="12" fill="#dc2626">POST /  (JSON)</text><text x="112" y="340" font-size="11" fill="#6b665c">nessuna autenticazione</text><path d="M300,300 L470,300" stroke="#dc2626" stroke-width="1.4" stroke-dasharray="5 6"/><circle class="req" r="5" fill="#fca5a5" style="offset-path:path('M300,300 L470,300')"/><text x="316" y="292" font-size="10" fill="#6b665c">unauth</text><rect x="470" y="196" width="380" height="286" rx="6" fill="#0d0d11" stroke="#6b665c" stroke-width="1.5"/><text x="494" y="230" font-size="14" fill="#e9e5db">FortiSandbox 4.4 / 5.0</text><rect x="494" y="248" width="150" height="120" rx="4" fill="none" stroke="#6b665c" stroke-dasharray="4 5"/><text x="510" y="278" font-size="10" fill="#6b665c">detonazione (isolata)</text><rect x="520" y="292" width="52" height="40" rx="3" fill="#17171d" stroke="#6b665c"/><text x="532" y="317" font-size="12" fill="#6b665c">MAL</text><rect class="hit" x="662" y="248" width="168" height="120" rx="4" fill="#101014" stroke="#6b665c" stroke-width="1.5"/><text x="680" y="278" font-size="11" fill="#dc2626">WEB UI · API</text><text x="680" y="304" font-size="11" fill="#e9e5db">start_vnc / endpoint</text><text x="680" y="330" font-size="10" fill="#6b665c">OS command injection</text><path d="M746,368 L746,408" stroke="#dc2626" stroke-width="1.5"/><path d="M740,400 l6,10 l6,-10" fill="none" stroke="#dc2626" stroke-width="1.5"/><rect x="470" y="412" width="640" height="86" rx="4" fill="#17171d" stroke="#dc2626" stroke-width="1.5"/><text x="492" y="444" font-size="13" fill="#dc2626">root@fortisandbox:/#</text><rect class="cur" x="672" y="432" width="8" height="15" fill="#dc2626"/><text x="492" y="472" font-size="13" fill="#e9e5db">comando eseguito sull'appliance</text><text x="700" y="240" font-size="11" fill="#6b665c">CVE-2026-25089 · -39808</text><text x="90" y="560" font-size="12" fill="#6b665c">la scatola costruita per eseguire malware, eseguita da chi bussa</text></g><rect width="1200" height="675" filter="url(#grain)" opacity=".05"/></svg>