<svg xmlns="http://www.w3.org/2000/svg" viewBox="0 0 1200 675" width="1200" height="675" role="img"><defs><radialGradient id="glow" cx="50%" cy="50%"><stop offset="0%" stop-color="#ea580c" stop-opacity=".22"/><stop offset="100%" stop-color="#ea580c" stop-opacity="0"/></radialGradient><filter id="grain"><feTurbulence type="fractalNoise" baseFrequency=".8" numOctaves="4"/></filter><pattern id="grid" width="48" height="48" patternUnits="userSpaceOnUse"><path d="M48 0H0v48" fill="none" stroke="#1b1b20" stroke-width="1"/></pattern></defs><style>@media (prefers-reduced-motion: reduce) { * { animation: none !important; } }.app{animation:un 6s ease-in-out infinite}@keyframes un{0%,22%{opacity:1;fill:#fdba74}42%,100%{opacity:.10;fill:#6b665c}}.sh{animation:lk 6s ease-in-out infinite}@keyframes lk{0%,45%{stroke:#6b665c}62%,100%{stroke:#ea580c}}.bd{animation:bf 6s ease-in-out infinite}@keyframes bf{0%,45%{fill:#101014;stroke:#6b665c}62%,100%{fill:#1d0f08;stroke:#ea580c}}</style><rect width="1200" height="675" fill="#0a0a0b"/><rect width="1200" height="675" fill="url(#grid)"/><ellipse cx="600" cy="337" rx="576" ry="371" fill="url(#glow)"/><g font-family="monospace" font-size="12"><text x="132" y="176" fill="#6b665c" font-size="11">KNX — bus di automazione dell'edificio</text><path d="M132,208 L1070,208" stroke="#6b665c" stroke-width="1" stroke-dasharray="4 7" opacity=".7"/><g transform="translate(132,222.9)"><rect width="118" height="54" rx="3" fill="#101014" stroke="#6b665c"/><rect class="app" x="10" y="12" width="98" height="30" rx="2" fill="#fdba74" opacity="1" style="animation-delay:0.00s"/></g><g transform="translate(284,222.9)"><rect width="118" height="54" rx="3" fill="#101014" stroke="#6b665c"/><rect class="app" x="10" y="12" width="98" height="30" rx="2" fill="#fdba74" opacity="1" style="animation-delay:0.18s"/></g><g transform="translate(436,225.3)"><rect width="118" height="54" rx="3" fill="#101014" stroke="#6b665c"/><rect class="app" x="10" y="12" width="98" height="30" rx="2" fill="#fdba74" opacity="1" style="animation-delay:0.36s"/></g><g transform="translate(588,225.1)"><rect width="118" height="54" rx="3" fill="#101014" stroke="#6b665c"/><rect class="app" x="10" y="12" width="98" height="30" rx="2" fill="#fdba74" opacity="1" style="animation-delay:0.54s"/></g><g transform="translate(740,225.2)"><rect width="118" height="54" rx="3" fill="#101014" stroke="#6b665c"/><rect class="app" x="10" y="12" width="98" height="30" rx="2" fill="#fdba74" opacity="1" style="animation-delay:0.72s"/></g><g transform="translate(892,222.7)"><rect width="118" height="54" rx="3" fill="#101014" stroke="#6b665c"/><rect class="app" x="10" y="12" width="98" height="30" rx="2" fill="#fdba74" opacity="1" style="animation-delay:0.90s"/></g><text x="132" y="326" fill="#ea580c" font-size="13">1. UNLOAD</text><text x="132" y="348" fill="#6b665c" font-size="11">applicazione rimossa dal dispositivo</text><text x="132" y="392" fill="#ea580c" font-size="13">2. SET BCU KEY</text><text x="132" y="414" fill="#6b665c" font-size="11">4 byte — mai impostata dall'installatore</text><g transform="translate(470,352)"><path class="sh" d="M22,44 V30 a20,20 0 0 1 40,0 V44" fill="none" stroke="#ea580c" stroke-width="5"/><rect class="bd" x="4" y="44" width="76" height="60" rx="5" fill="#1d0f08" stroke="#ea580c" stroke-width="1.5"/><circle cx="42" cy="70" r="6" fill="#ea580c"/><path d="M42,76 v14" stroke="#ea580c" stroke-width="3"/><text x="14" y="128" fill="#ea580c" font-size="11">BLOCCATO</text></g><rect x="640" y="342" width="430" height="126" rx="4" fill="#17171d" stroke="#6b665c"/><text x="662" y="374" fill="#6b665c" font-size="11">risposta dei vendor:</text><text x="662" y="406" fill="#e9e5db" font-size="15">nessun reset possibile</text><text x="662" y="436" fill="#ea580c" font-size="11">rip &amp; replace — oltre 100.000 EUR</text><text x="132" y="592" fill="#6b665c" font-size="12">la funzione di protezione ha fatto esattamente il suo lavoro. Per l'attaccante.</text></g><rect width="1200" height="675" filter="url(#grain)" opacity=".05"/></svg>