<svg xmlns="http://www.w3.org/2000/svg" viewBox="0 0 1200 675" width="1200" height="675" role="img"><defs><radialGradient id="glow" cx="50%" cy="50%"><stop offset="0%" stop-color="#ea580c" stop-opacity=".22"/><stop offset="100%" stop-color="#ea580c" stop-opacity="0"/></radialGradient><filter id="grain"><feTurbulence type="fractalNoise" baseFrequency=".8" numOctaves="4"/></filter><pattern id="grid" width="48" height="48" patternUnits="userSpaceOnUse"><path d="M48 0H0v48" fill="none" stroke="#1b1b20" stroke-width="1"/></pattern></defs><style>@media (prefers-reduced-motion: reduce) { * { animation: none !important; } }.lk{animation:lk 4s ease-in-out infinite}@keyframes lk{0%,50%{opacity:.3}65%,100%{opacity:1}}</style><rect width="1200" height="675" fill="#0a0a0b"/><rect width="1200" height="675" fill="url(#grid)"/><ellipse cx="600" cy="337" rx="576" ry="371" fill="url(#glow)"/><g font-family="monospace" font-size="13"><rect x="100" y="250" width="210" height="150" rx="4" fill="#101014" stroke="#6b665c"/><text x="122" y="284" fill="#e9e5db" font-size="12">QILIN (Agenda)</text><text x="122" y="326" fill="#6b665c" font-size="11">ransomware-as-a-service</text><text x="122" y="348" fill="#ea580c" font-size="11">doppia estorsione</text><path d="M310,325 L470,325" stroke="#6b665c" stroke-width="1.5" stroke-dasharray="4 6"/><rect x="470" y="250" width="248" height="150" rx="4" fill="#101014" stroke="#6b665c"/><text x="492" y="284" fill="#e9e5db" font-size="12">esfiltrazione</text><text x="492" y="326" fill="#6b665c" font-size="11">~221 GB rivendicati</text><text x="492" y="348" fill="#ea580c" font-size="11">cifratura + leak site</text><g class="lk"><path d="M718,325 L840,325" stroke="#ea580c" stroke-width="1.5" stroke-dasharray="5 5"/></g><rect x="840" y="256" width="248" height="138" rx="4" fill="#17171d" stroke="#6b665c"/><text x="862" y="288" fill="#e9e5db" font-size="12">rivendicazione</text><text class="lk" x="862" y="322" font-size="12" fill="#ea580c">90.000+ file</text><text x="862" y="360" fill="#6b665c" font-size="10">NON confermata dalla vittima</text><text x="100" y="452" fill="#6b665c" font-size="11">una rivendicazione, non una conferma: i numeri sono dell'attaccante</text></g><rect width="1200" height="675" filter="url(#grain)" opacity=".05"/></svg>