<svg xmlns="http://www.w3.org/2000/svg" viewBox="0 0 1200 675" width="1200" height="675" role="img"><defs><radialGradient id="glow" cx="50%" cy="50%"><stop offset="0%" stop-color="#dc2626" stop-opacity=".22"/><stop offset="100%" stop-color="#dc2626" stop-opacity="0"/></radialGradient><filter id="grain"><feTurbulence type="fractalNoise" baseFrequency=".8" numOctaves="4"/></filter><pattern id="grid" width="48" height="48" patternUnits="userSpaceOnUse"><path d="M48 0H0v48" fill="none" stroke="#1b1b20" stroke-width="1"/></pattern></defs><style>@media (prefers-reduced-motion: reduce) { * { animation: none !important; } }.ch{animation:ch 4s ease-in-out infinite}@keyframes ch{0%,20%{opacity:.25}40%,85%{opacity:1}100%{opacity:.25}}.sh{animation:sh 4s ease-in-out infinite}@keyframes sh{0%,60%{fill:#6b665c}75%,100%{fill:#dc2626}}</style><rect width="1200" height="675" fill="#0a0a0b"/><rect width="1200" height="675" fill="url(#grid)"/><ellipse cx="600" cy="337" rx="576" ry="371" fill="url(#glow)"/><g font-family="monospace" font-size="13"><rect x="90" y="250" width="196" height="150" rx="4" fill="#101014" stroke="#6b665c"/><text x="112" y="284" fill="#e9e5db" font-size="12">ATTACCANTE</text><text x="112" y="326" fill="#6b665c" font-size="11">richiesta HTTP</text><text x="112" y="348" fill="#dc2626" font-size="11">nessuna autenticazione</text><g class="ch"><path d="M286,320 L470,320" stroke="#dc2626" stroke-width="1.5" stroke-dasharray="5 5"/><text x="310" y="310" fill="#dc2626" font-size="11">catena WP2Shell</text></g><rect x="470" y="250" width="248" height="150" rx="4" fill="#101014" stroke="#6b665c"/><text x="492" y="284" fill="#e9e5db" font-size="12">WordPress Core</text><text x="492" y="326" fill="#6b665c" font-size="11">WP_Query · author__not_in</text><text x="492" y="348" fill="#dc2626" font-size="11">SQL injection (CVE-2026-60137)</text><path d="M718,320 L840,320" stroke="#6b665c" stroke-width="1.5" stroke-dasharray="4 6"/><rect x="840" y="256" width="248" height="138" rx="4" fill="#17171d" stroke="#6b665c"/><text x="862" y="288" fill="#e9e5db" font-size="12">RCE su install di default</text><text class="sh" x="862" y="322" font-size="12" fill="#6b665c">REST API batch (CVE-2026-63030)</text><text x="862" y="360" fill="#6b665c" font-size="10">CVE-2026-60137 + 63030 · KEV 21 lug</text><text x="90" y="452" fill="#6b665c" font-size="11">due falle del core, concatenate: da nessun login a esecuzione di codice</text></g><rect width="1200" height="675" filter="url(#grain)" opacity=".05"/></svg>