<svg xmlns="http://www.w3.org/2000/svg" viewBox="0 0 1200 675" width="1200" height="675" role="img" aria-label=""><rect width="1200" height="675" fill="#0a0a0b"/><defs><radialGradient id="g" cx="50%" cy="50%"><stop offset="0%" stop-color="#dc2626" stop-opacity=".28"/><stop offset="100%" stop-color="#dc2626" stop-opacity="0"/></radialGradient><filter id="b"><feGaussianBlur stdDeviation="14"/></filter></defs><ellipse cx="518" cy="329" rx="600" ry="371" fill="url(#g)"/><polyline points="0,147.8 40,159.8 80,168.5 120,171.7 160,168.5 200,159.7 240,147.7 280,135.8 320,127.1 360,124.0 400,127.3 440,136.1 480,148.1 520,160.0 560,168.6 600,171.7 640,168.3 680,159.5 720,147.5 760,135.6 800,127.0 840,124.0 880,127.4 920,136.3 960,148.3 1000,160.2 1040,168.8 1080,171.7 1120,168.2 1160,159.2 1200,147.2" fill="none" stroke="#dc2626" stroke-opacity="0.45" stroke-width="2.1"/><polyline points="0,169.6 40,176.4 80,182.4 120,186.7 160,188.8 200,188.4 240,185.6 280,180.8 320,174.5 360,167.6 400,160.9 440,155.4 480,151.7 520,150.3 560,151.4 600,154.8 640,160.2 680,166.7 720,173.7 760,180.1 800,185.1 840,188.2 880,188.9 920,187.1 960,183.0 1000,177.2 1040,170.5 1080,163.6 1120,157.5 1160,153.0 1200,150.6" fill="none" stroke="#dc2626" stroke-opacity="0.37" stroke-width="1.8"/><polyline points="0,190.7 40,202.1 80,210.7 120,214.3 160,212.1 200,204.7 240,193.8 280,182.1 320,172.6 360,167.5 400,168.2 440,174.4 480,184.6 520,196.4 560,206.7 600,213.1 640,214.0 680,209.1 720,199.7 760,188.0 800,177.0 840,169.4 880,167.1 920,170.5 960,179.0 1000,190.3 1040,201.7 1080,210.4 1120,214.3 1160,212.3 1200,205.0" fill="none" stroke="#dc2626" stroke-opacity="0.27" stroke-width="2.1"/><polyline points="0,217.1 40,226.5 80,233.7 120,237.1 160,236.0 200,230.5 240,222.0 280,212.3 320,203.8 360,198.3 400,197.1 440,200.5 480,207.7 520,217.1 560,226.5 600,233.7 640,237.1 680,236.0 720,230.5 760,222.0 800,212.3 840,203.8 880,198.3 920,197.1 960,200.5 1000,207.7 1040,217.1 1080,226.4 1120,233.7 1160,237.1 1200,236.0" fill="none" stroke="#dc2626" stroke-opacity="0.20" stroke-width="2.3"/><polyline points="0,245.6 40,252.7 80,259.2 120,264.4 160,268.0 200,269.5 240,268.9 280,266.2 320,261.6 360,255.5 400,248.6 440,241.4 480,234.5 520,228.7 560,224.4 600,222.0 640,221.7 680,223.5 720,227.4 760,232.9 800,239.5 840,246.7 880,253.8 920,260.1 960,265.1 1000,268.4 1040,269.6 1080,268.6 1120,265.5 1160,260.7 1200,254.5" fill="none" stroke="#dc2626" stroke-opacity="0.32" stroke-width="1.0"/><polyline points="0,268.8 40,278.2 80,286.4 120,292.0 160,294.3 200,293.0 240,288.3 280,280.8 320,271.6 360,262.0 400,253.4 440,246.9 480,243.6 520,243.8 560,247.6 600,254.4 640,263.3 680,272.9 720,281.9 760,289.1 800,293.4 840,294.2 880,291.4 920,285.4 960,277.0 1000,267.5 1040,258.1 1080,250.3 1120,245.1 1160,243.3 1200,245.1" fill="none" stroke="#dc2626" stroke-opacity="0.40" stroke-width="1.6"/><polyline points="0,307.2 40,311.3 80,314.9 120,317.8 160,319.6 200,320.1 240,319.4 280,317.4 320,314.4 360,310.7 400,306.6 440,302.6 480,299.1 520,296.3 560,294.7 600,294.3 640,295.3 680,297.4 720,300.5 760,304.3 800,308.4 840,312.4 880,315.8 920,318.4 960,319.9 1000,320.1 1040,318.9 1080,316.6 1120,313.4 1160,309.5 1200,305.4" fill="none" stroke="#dc2626" stroke-opacity="0.23" stroke-width="2.2"/><polyline points="0,350.7 40,356.7 80,362.0 120,366.2 160,368.6 200,369.2 240,367.7 280,364.4 320,359.7 360,354.0 400,347.9 440,342.2 480,337.3 520,333.9 560,332.4 600,332.8 640,335.1 680,339.1 720,344.4 760,350.3 800,356.3 840,361.7 880,365.9 920,368.5 960,369.2 1000,367.9 1040,364.7 1080,360.0 1120,354.4 1160,348.3 1200,342.5" fill="none" stroke="#dc2626" stroke-opacity="0.22" stroke-width="2.0"/><polyline points="0,389.3 40,394.1 80,398.3 120,401.4 160,403.0 200,402.9 240,401.2 280,398.0 320,393.8 360,389.0 400,384.2 440,380.1 480,377.1 520,375.6 560,375.8 600,377.6 640,380.9 680,385.2 720,390.0 760,394.7 800,398.8 840,401.7 880,403.1 920,402.8 960,400.9 1000,397.5 1040,393.2 1080,388.3 1120,383.6 1160,379.6 1200,376.8" fill="none" stroke="#dc2626" stroke-opacity="0.35" stroke-width="1.9"/><polyline points="0,417.9 40,423.9 80,428.4 120,430.3 160,429.2 200,425.2 240,419.4 280,413.3 320,408.3 360,405.6 400,406.0 440,409.4 480,414.8 520,421.0 560,426.4 600,429.8 640,430.1 680,427.5 720,422.5 760,416.3 800,410.5 840,406.6 880,405.4 920,407.4 960,411.9 1000,417.9 1040,423.9 1080,428.4 1120,430.4 1160,429.2 1200,425.2" fill="none" stroke="#dc2626" stroke-opacity="0.39" stroke-width="0.9"/><polyline points="0,461.5 40,464.0 80,466.3 120,468.0 160,469.0 200,469.2 240,468.6 280,467.2 320,465.1 360,462.7 400,460.1 440,457.7 480,455.7 520,454.4 560,453.8 600,454.1 640,455.1 680,456.9 720,459.2 760,461.7 800,464.2 840,466.5 880,468.1 920,469.1 960,469.2 1000,468.5 1040,467.0 1080,464.9 1120,462.5 1160,459.9 1200,457.5" fill="none" stroke="#dc2626" stroke-opacity="0.19" stroke-width="2.2"/><polyline points="0,478.7 40,481.4 80,483.7 120,485.6 160,486.8 200,487.1 240,486.6 280,485.4 320,483.4 360,481.0 400,478.3 440,475.7 480,473.4 520,471.6 560,470.5 600,470.3 640,470.9 680,472.3 720,474.4 760,476.9 800,479.6 840,482.1 880,484.4 920,486.0 960,487.0 1000,487.1 1040,486.3 1080,484.8 1120,482.7 1160,480.1 1200,477.5" fill="none" stroke="#dc2626" stroke-opacity="0.30" stroke-width="2.3"/><polyline points="0,513.8 40,519.1 80,524.0 120,528.3 160,531.6 200,533.8 240,534.6 280,534.1 320,532.3 360,529.3 400,525.3 440,520.5 480,515.3 520,510.0 560,504.9 600,500.5 640,496.9 680,494.4 720,493.2 760,493.3 800,494.7 840,497.4 880,501.2 920,505.8 960,510.9 1000,516.2 1040,521.4 1080,526.1 1120,529.9 1160,532.7 1200,534.3" fill="none" stroke="#dc2626" stroke-opacity="0.17" stroke-width="1.4"/><polyline points="0,545.6 40,556.4 80,564.9 120,569.3 160,568.6 200,563.0 240,553.7 280,542.7 320,532.3 360,524.7 400,521.7 440,523.7 480,530.4 520,540.4 560,551.5 600,561.4 640,567.9 680,569.6 720,566.2 760,558.4 800,547.9 840,536.9 880,527.8 920,522.5 960,522.1 1000,526.8 1040,535.5 1080,546.3 1120,557.0 1160,565.3 1200,569.4" fill="none" stroke="#dc2626" stroke-opacity="0.17" stroke-width="2.3"/><polyline points="0,586.7 40,593.5 80,599.7 120,604.5 160,607.7 200,608.8 240,607.7 280,604.6 320,599.8 360,593.6 400,586.8 440,580.0 480,573.9 520,569.0 560,565.8 600,564.6 640,565.7 680,568.7 720,573.6 760,579.7 800,586.5 840,593.3 880,599.5 920,604.4 960,607.6 1000,608.8 1040,607.8 1080,604.8 1120,600.0 1160,593.9 1200,587.1" fill="none" stroke="#dc2626" stroke-opacity="0.16" stroke-width="1.8"/><polyline points="0,629.4 40,633.3 80,636.8 120,639.8 160,641.9 200,642.9 240,642.9 280,641.7 320,639.6 360,636.5 400,632.9 440,629.1 480,625.2 520,621.7 560,618.8 600,616.8 640,615.8 680,616.0 720,617.3 760,619.5 800,622.6 840,626.2 880,630.1 920,634.0 960,637.4 1000,640.3 1040,642.2 1080,643.0 1120,642.8 1160,641.4 1200,639.0" fill="none" stroke="#dc2626" stroke-opacity="0.43" stroke-width="1.8"/><polyline points="0,659.6 40,667.8 80,674.7 120,679.3 160,681.1 200,679.6 240,675.1 280,668.4 320,660.3 360,652.1 400,645.1 440,640.2 480,638.2 520,639.5 560,643.7 600,650.3 640,658.3 680,666.5 720,673.7 760,678.8 800,681.0 840,680.0 880,676.0 920,669.5 960,661.6 1000,653.4 1040,646.1 1080,640.8 1120,638.3 1160,639.1 1200,642.9" fill="none" stroke="#dc2626" stroke-opacity="0.26" stroke-width="1.5"/><filter id="n"><feTurbulence type="fractalNoise" baseFrequency="0.8" numOctaves="4"/></filter><rect width="1200" height="675" filter="url(#n)" opacity=".05"/></svg>