<svg xmlns="http://www.w3.org/2000/svg" viewBox="0 0 1200 675" width="1200" height="675" role="img" aria-label=""><rect width="1200" height="675" fill="#0a0a0b"/><defs><radialGradient id="g" cx="50%" cy="50%"><stop offset="0%" stop-color="#ea580c" stop-opacity=".28"/><stop offset="100%" stop-color="#ea580c" stop-opacity="0"/></radialGradient><filter id="b"><feGaussianBlur stdDeviation="20"/></filter></defs><ellipse cx="697" cy="271" rx="600" ry="371" fill="url(#g)"/><polyline points="0,108.3 40,110.0 80,111.7 120,113.1 160,114.2 200,115.0 240,115.3 280,115.2 320,114.6 360,113.7 400,112.4 440,110.9 480,109.2 520,107.4 560,105.7 600,104.2 640,102.9 680,101.9 720,101.4 760,101.3 800,101.6 840,102.4 880,103.5 920,104.9 960,106.6 1000,108.3 1040,110.1 1080,111.7 1120,113.1 1160,114.2 1200,115.0" fill="none" stroke="#ea580c" stroke-opacity="0.40" stroke-width="1.5"/><polyline points="0,131.9 40,141.1 80,149.0 120,154.3 160,156.3 200,154.7 240,149.8 280,142.2 320,133.1 360,123.8 400,115.7 440,110.0 480,107.5 520,108.7 560,113.2 600,120.6 640,129.6 680,138.9 720,147.2 760,153.3 800,156.2 840,155.5 880,151.3 920,144.2 960,135.4 1000,126.0 1040,117.5 1080,111.1 1120,107.8 1160,108.1 1200,111.8" fill="none" stroke="#ea580c" stroke-opacity="0.18" stroke-width="0.9"/><polyline points="0,159.3 40,167.7 80,174.4 120,178.4 160,178.8 200,175.6 240,169.4 280,161.3 320,152.8 360,145.6 400,140.9 440,139.6 480,142.0 520,147.6 560,155.4 600,164.0 640,171.6 680,177.0 720,179.1 760,177.5 800,172.5 840,165.1 880,156.6 920,148.6 960,142.6 1000,139.7 1040,140.5 1080,144.7 1120,151.7 1160,160.1 1200,168.4" fill="none" stroke="#ea580c" stroke-opacity="0.25" stroke-width="1.5"/><polyline points="0,183.8 40,188.6 80,192.9 120,196.3 160,198.4 200,199.0 240,198.1 280,195.7 320,192.1 360,187.6 400,182.8 440,178.0 480,173.9 520,170.7 560,168.9 600,168.7 640,169.9 680,172.6 720,176.5 760,181.0 800,185.9 840,190.6 880,194.5 920,197.4 960,198.9 1000,198.8 1040,197.2 1080,194.3 1120,190.2 1160,185.6 1200,180.7" fill="none" stroke="#ea580c" stroke-opacity="0.35" stroke-width="1.7"/><polyline points="0,206.2 40,209.5 80,212.5 120,214.7 160,216.1 200,216.3 240,215.5 280,213.6 320,210.9 360,207.7 400,204.4 440,201.2 480,198.6 520,196.8 560,196.1 600,196.4 640,197.8 680,200.2 720,203.2 760,206.5 800,209.8 840,212.7 880,214.9 920,216.1 960,216.3 1000,215.3 1040,213.4 1080,210.6 1120,207.4 1160,204.1 1200,200.9" fill="none" stroke="#ea580c" stroke-opacity="0.22" stroke-width="1.6"/><polyline points="0,228.4 40,239.5 80,247.9 120,251.8 160,250.1 200,243.3 240,233.0 280,221.6 320,211.8 360,206.0 400,205.4 440,210.2 480,219.4 520,230.7 560,241.4 600,249.1 640,251.9 680,249.2 720,241.5 760,230.8 800,219.5 840,210.3 880,205.4 920,205.9 960,211.7 1000,221.5 1040,232.9 1080,243.2 1120,250.1 1160,251.8 1200,248.0" fill="none" stroke="#ea580c" stroke-opacity="0.31" stroke-width="0.9"/><polyline points="0,258.5 40,269.6 80,278.0 120,281.6 160,279.7 200,272.7 240,262.2 280,250.8 320,241.3 360,235.9 400,236.0 440,241.6 480,251.2 520,262.6 560,273.0 600,279.9 640,281.6 680,277.7 720,269.2 760,258.1 800,247.1 840,238.8 880,235.3 920,237.4 960,244.6 1000,255.2 1040,266.5 1080,276.0 1120,281.1 1160,280.8 1200,275.1" fill="none" stroke="#ea580c" stroke-opacity="0.15" stroke-width="1.4"/><polyline points="0,297.6 40,301.1 80,304.1 120,305.9 160,306.4 200,305.5 240,303.3 280,300.1 320,296.5 360,293.1 400,290.5 440,289.0 480,288.9 520,290.3 560,292.8 600,296.2 640,299.8 680,303.0 720,305.3 760,306.4 800,306.0 840,304.3 880,301.4 920,297.9 960,294.4 1000,291.4 1040,289.4 1080,288.7 1120,289.5 1160,291.7 1200,294.8" fill="none" stroke="#ea580c" stroke-opacity="0.22" stroke-width="1.3"/><polyline points="0,339.6 40,347.7 80,354.7 120,359.7 160,362.0 200,361.3 240,357.7 280,351.6 320,343.9 360,335.7 400,327.9 440,321.8 480,318.0 520,317.1 560,319.2 600,324.1 640,331.0 680,339.1 720,347.3 760,354.4 800,359.5 840,362.0 880,361.4 920,357.9 960,352.0 1000,344.4 1040,336.1 1080,328.3 1120,322.1 1160,318.1 1200,317.1" fill="none" stroke="#ea580c" stroke-opacity="0.24" stroke-width="0.8"/><polyline points="0,355.8 40,359.6 80,363.3 120,366.4 160,368.9 200,370.5 240,371.2 280,371.0 320,369.8 360,367.7 400,364.8 440,361.4 480,357.6 520,353.7 560,350.0 600,346.6 640,343.8 680,341.7 720,340.5 760,340.3 800,341.1 840,342.8 880,345.3 920,348.5 960,352.1 1000,356.0 1040,359.8 1080,363.4 1120,366.5 1160,369.0 1200,370.6" fill="none" stroke="#ea580c" stroke-opacity="0.43" stroke-width="1.0"/><polyline points="0,390.2 40,394.8 80,399.0 120,402.3 160,404.3 200,404.8 240,403.8 280,401.4 320,397.8 360,393.4 400,388.7 440,384.1 480,380.2 520,377.3 560,375.7 600,375.7 640,377.2 680,380.0 720,383.9 760,388.4 800,393.1 840,397.5 880,401.2 920,403.7 960,404.8 1000,404.3 1040,402.4 1080,399.2 1120,395.1 1160,390.5 1200,385.8" fill="none" stroke="#ea580c" stroke-opacity="0.39" stroke-width="1.9"/><polyline points="0,422.7 40,426.4 80,429.2 120,430.2 160,429.1 200,426.4 240,422.6 280,418.9 320,416.1 360,415.1 400,416.2 440,418.9 480,422.7 520,426.4 560,429.2 600,430.2 640,429.1 680,426.4 720,422.6 760,418.9 800,416.1 840,415.1 880,416.2 920,419.0 960,422.7 1000,426.5 1040,429.2 1080,430.2 1120,429.1 1160,426.3 1200,422.6" fill="none" stroke="#ea580c" stroke-opacity="0.48" stroke-width="2.3"/><polyline points="0,445.9 40,451.4 80,456.6 120,461.0 160,464.3 200,466.4 240,467.1 280,466.3 320,464.2 360,460.7 400,456.3 440,451.1 480,445.6 520,440.1 560,435.0 600,430.7 640,427.4 680,425.3 720,424.7 760,425.6 800,427.8 840,431.3 880,435.8 920,441.0 960,446.5 1000,452.0 1040,457.0 1080,461.3 1120,464.6 1160,466.6 1200,467.1" fill="none" stroke="#ea580c" stroke-opacity="0.15" stroke-width="2.0"/><polyline points="0,489.4 40,498.8 80,506.7 120,511.6 160,512.9 200,510.1 240,504.0 280,495.3 320,485.7 360,476.7 400,469.9 440,466.3 480,466.6 520,470.7 560,477.9 600,487.1 640,496.7 680,505.1 720,510.8 760,512.9 800,511.1 840,505.7 880,497.5 920,488.0 960,478.7 1000,471.2 1040,466.8 1080,466.1 1120,469.4 1160,476.0 1200,484.9" fill="none" stroke="#ea580c" stroke-opacity="0.18" stroke-width="1.7"/><polyline points="0,530.0 40,534.8 80,538.2 120,539.0 160,537.2 200,533.1 240,528.1 280,523.7 320,521.2 360,521.4 400,524.2 440,528.8 480,533.7 520,537.6 560,539.1 600,537.8 640,534.2 680,529.3 720,524.6 760,521.6 800,521.1 840,523.3 880,527.6 920,532.6 960,536.8 1000,539.0 1040,538.4 1080,535.3 1120,530.6 1160,525.7 1200,522.1" fill="none" stroke="#ea580c" stroke-opacity="0.48" stroke-width="1.4"/><polyline points="0,564.4 40,571.2 80,577.6 120,582.9 160,586.9 200,589.2 240,589.7 280,588.3 320,585.1 360,580.4 400,574.6 440,568.0 480,561.1 520,554.5 560,548.6 600,543.9 640,540.7 680,539.2 720,539.7 760,541.9 800,545.9 840,551.2 880,557.4 920,564.2 960,571.1 1000,577.4 1040,582.8 1080,586.8 1120,589.1 1160,589.7 1200,588.3" fill="none" stroke="#ea580c" stroke-opacity="0.45" stroke-width="1.5"/><polyline points="0,591.0 40,595.9 80,600.1 120,602.8 160,603.8 200,602.7 240,599.9 280,595.7 320,590.8 360,585.9 400,581.7 440,579.0 480,578.2 520,579.3 560,582.2 600,586.5 640,591.4 680,596.3 720,600.4 760,603.0 800,603.8 840,602.6 880,599.6 920,595.3 960,590.3 1000,585.5 1040,581.5 1080,578.9 1120,578.2 1160,579.5 1200,582.5" fill="none" stroke="#ea580c" stroke-opacity="0.32" stroke-width="1.3"/><polyline points="0,616.3 40,622.0 80,627.3 120,631.8 160,635.3 200,637.6 240,638.4 280,637.7 320,635.6 360,632.2 400,627.7 440,622.5 480,616.8 520,611.2 560,605.8 600,601.2 640,597.6 680,595.3 720,594.3 760,594.9 800,596.9 840,600.2 880,604.6 920,609.7 960,615.4 1000,621.1 1040,626.4 1080,631.1 1120,634.8 1160,637.3 1200,638.3" fill="none" stroke="#ea580c" stroke-opacity="0.44" stroke-width="2.3"/><polyline points="0,657.7 40,663.5 80,668.9 120,673.4 160,676.8 200,678.9 240,679.3 280,678.2 320,675.6 360,671.7 400,666.8 440,661.2 480,655.4 520,649.7 560,644.6 600,640.5 640,637.6 680,636.2 720,636.4 760,638.1 800,641.2 840,645.6 880,650.8 920,656.5 960,662.4 1000,667.9 1040,672.6 1080,676.3 1120,678.6 1160,679.4 1200,678.6" fill="none" stroke="#ea580c" stroke-opacity="0.20" stroke-width="1.7"/><filter id="n"><feTurbulence type="fractalNoise" baseFrequency="0.8" numOctaves="4"/></filter><rect width="1200" height="675" filter="url(#n)" opacity=".05"/></svg>