<svg xmlns="http://www.w3.org/2000/svg" viewBox="0 0 1200 675" width="1200" height="675" role="img" aria-label=""><rect width="1200" height="675" fill="#0a0a0b"/><defs><radialGradient id="g" cx="50%" cy="50%"><stop offset="0%" stop-color="#dc2626" stop-opacity=".28"/><stop offset="100%" stop-color="#dc2626" stop-opacity="0"/></radialGradient><filter id="b"><feGaussianBlur stdDeviation="27"/></filter></defs><ellipse cx="571" cy="340" rx="600" ry="371" fill="url(#g)"/><polyline points="0,110.8 40,117.0 80,122.5 120,126.9 160,129.7 200,130.7 240,129.6 280,126.6 320,122.1 360,116.5 400,110.2 440,104.1 480,98.6 520,94.3 560,91.6 600,90.9 640,92.1 680,95.2 720,99.8 760,105.5 800,111.8 840,117.9 880,123.3 920,127.5 960,130.0 1000,130.6 1040,129.2 1080,126.0 1120,121.3 1160,115.5 1200,109.2" fill="none" stroke="#dc2626" stroke-opacity="0.25" stroke-width="1.3"/><polyline points="0,129.2 40,131.9 80,134.5 120,136.8 160,138.4 200,139.5 240,139.8 280,139.3 320,138.2 360,136.4 400,134.1 440,131.5 480,128.7 520,125.9 560,123.4 600,121.2 640,119.7 680,118.7 720,118.6 760,119.1 800,120.4 840,122.3 880,124.6 920,127.3 960,130.1 1000,132.9 1040,135.4 1080,137.4 1120,138.9 1160,139.7 1200,139.7" fill="none" stroke="#dc2626" stroke-opacity="0.20" stroke-width="1.0"/><polyline points="0,149.2 40,154.2 80,158.0 120,159.5 160,158.5 200,155.1 240,150.2 280,145.0 320,140.9 360,138.9 400,139.4 440,142.5 480,147.2 520,152.4 560,156.8 600,159.3 640,159.2 680,156.6 720,152.1 760,146.9 800,142.2 840,139.3 880,138.9 920,141.1 960,145.3 1000,150.5 1040,155.3 1080,158.6 1120,159.5 1160,157.8 1200,153.9" fill="none" stroke="#dc2626" stroke-opacity="0.31" stroke-width="1.1"/><polyline points="0,186.7 40,194.3 80,200.9 120,205.5 160,207.6 200,206.9 240,203.4 280,197.7 320,190.5 360,182.7 400,175.5 440,169.8 480,166.4 520,165.7 560,167.9 600,172.6 640,179.2 680,186.8 720,194.4 760,200.9 800,205.6 840,207.6 880,206.9 920,203.4 960,197.6 1000,190.4 1040,182.6 1080,175.4 1120,169.8 1160,166.4 1200,165.8" fill="none" stroke="#dc2626" stroke-opacity="0.16" stroke-width="0.9"/><polyline points="0,228.1 40,232.3 80,236.1 120,239.5 160,242.0 200,243.7 240,244.4 280,243.9 320,242.5 360,240.1 400,236.9 440,233.1 480,229.0 520,224.8 560,220.9 600,217.4 640,214.7 680,212.8 720,211.9 760,212.1 800,213.4 840,215.6 880,218.7 920,222.4 960,226.4 1000,230.6 1040,234.6 1080,238.2 1120,241.1 1160,243.1 1200,244.2" fill="none" stroke="#dc2626" stroke-opacity="0.34" stroke-width="1.5"/><polyline points="0,257.9 40,266.2 80,273.1 120,277.3 160,278.0 200,275.2 240,269.3 280,261.3 320,252.8 360,245.1 400,239.7 440,237.6 480,239.0 520,243.8 560,251.1 600,259.6 640,267.8 680,274.2 720,277.7 760,277.8 800,274.3 840,267.8 880,259.7 920,251.2 960,243.9 1000,239.1 1040,237.6 1080,239.7 1120,245.1 1160,252.7 1200,261.2" fill="none" stroke="#dc2626" stroke-opacity="0.40" stroke-width="1.3"/><polyline points="0,289.0 40,298.2 80,305.6 120,309.6 160,309.5 200,305.2 240,297.7 280,288.4 320,279.2 360,272.0 400,268.2 440,268.6 480,273.1 520,280.8 560,290.2 600,299.3 640,306.3 680,309.8 720,309.2 760,304.5 800,296.6 840,287.2 880,278.2 920,271.3 960,268.1 1000,269.0 1040,273.9 1080,281.9 1120,291.3 1160,300.3 1200,307.0" fill="none" stroke="#dc2626" stroke-opacity="0.35" stroke-width="1.7"/><polyline points="0,320.8 40,327.0 80,332.6 120,337.0 160,340.0 200,341.0 240,340.2 280,337.5 320,333.2 360,327.7 400,321.6 440,315.3 480,309.6 520,305.0 560,301.9 600,300.5 640,301.2 680,303.6 720,307.8 760,313.1 800,319.2 840,325.5 880,331.3 920,336.1 960,339.4 1000,341.0 1040,340.6 1080,338.3 1120,334.4 1160,329.1 1200,323.1" fill="none" stroke="#dc2626" stroke-opacity="0.34" stroke-width="1.9"/><polyline points="0,354.0 40,356.5 80,358.7 120,360.7 160,362.2 200,363.1 240,363.4 280,363.1 320,362.1 360,360.6 400,358.7 440,356.4 480,354.0 520,351.5 560,349.2 600,347.3 640,345.8 680,344.9 720,344.6 760,344.9 800,345.9 840,347.4 880,349.4 920,351.7 960,354.1 1000,356.6 1040,358.8 1080,360.8 1120,362.2 1160,363.1 1200,363.4" fill="none" stroke="#dc2626" stroke-opacity="0.26" stroke-width="1.4"/><polyline points="0,396.2 40,403.4 80,410.0 120,415.3 160,418.6 200,419.8 240,418.7 280,415.4 320,410.3 360,403.7 400,396.5 440,389.2 480,382.5 520,377.2 560,373.8 600,372.5 640,373.5 680,376.7 720,381.8 760,388.3 800,395.5 840,402.9 880,409.5 920,414.9 960,418.4 1000,419.8 1040,418.9 1080,415.8 1120,410.8 1160,404.3 1200,397.1" fill="none" stroke="#dc2626" stroke-opacity="0.24" stroke-width="2.0"/><polyline points="0,439.1 40,446.8 80,453.6 120,459.1 160,462.5 200,463.6 240,462.2 280,458.6 320,453.0 360,446.0 400,438.3 440,430.7 480,424.0 520,418.8 560,415.6 600,414.8 640,416.4 680,420.3 720,426.0 760,433.1 800,440.8 840,448.4 880,455.0 920,460.0 960,462.9 1000,463.5 1040,461.6 1080,457.5 1120,451.5 1160,444.3 1200,436.6" fill="none" stroke="#dc2626" stroke-opacity="0.21" stroke-width="1.7"/><polyline points="0,462.8 40,468.3 80,473.4 120,477.7 160,480.9 200,482.7 240,483.0 280,481.9 320,479.2 360,475.4 400,470.6 440,465.3 480,459.7 520,454.4 560,449.7 600,446.0 640,443.6 680,442.5 720,443.1 760,445.0 800,448.4 840,452.8 880,457.9 920,463.4 960,468.9 1000,473.9 1040,478.1 1080,481.1 1120,482.8 1160,483.0 1200,481.6" fill="none" stroke="#dc2626" stroke-opacity="0.23" stroke-width="2.3"/><polyline points="0,501.0 40,505.6 80,509.9 120,513.3 160,515.8 200,516.9 240,516.7 280,515.2 320,512.4 360,508.7 400,504.3 440,499.6 480,495.1 520,491.0 560,487.8 600,485.7 640,485.0 680,485.6 720,487.5 760,490.5 800,494.5 840,499.0 880,503.7 920,508.2 960,512.0 1000,514.9 1040,516.6 1080,517.0 1120,516.0 1160,513.7 1200,510.4" fill="none" stroke="#dc2626" stroke-opacity="0.38" stroke-width="1.5"/><polyline points="0,536.9 40,538.6 80,540.2 120,541.6 160,542.6 200,543.1 240,543.1 280,542.7 320,541.8 360,540.5 400,538.9 440,537.1 480,535.4 520,533.7 560,532.3 600,531.3 640,530.7 680,530.6 720,531.0 760,531.8 800,533.1 840,534.6 880,536.4 920,538.1 960,539.8 1000,541.2 1040,542.3 1080,543.0 1120,543.2 1160,542.9 1200,542.1" fill="none" stroke="#dc2626" stroke-opacity="0.42" stroke-width="2.1"/><polyline points="0,577.9 40,582.5 80,586.8 120,590.5 160,593.5 200,595.4 240,596.1 280,595.7 320,594.2 360,591.6 400,588.1 440,583.9 480,579.4 520,574.8 560,570.3 600,566.4 640,563.2 680,560.9 720,559.8 760,559.8 800,561.0 840,563.3 880,566.5 920,570.5 960,574.9 1000,579.5 1040,584.1 1080,588.2 1120,591.7 1160,594.3 1200,595.8" fill="none" stroke="#dc2626" stroke-opacity="0.26" stroke-width="1.0"/><polyline points="0,611.1 40,622.1 80,630.4 120,634.0 160,632.0 200,624.9 240,614.4 280,603.1 320,593.7 360,588.6 400,589.0 440,594.8 480,604.6 520,615.9 560,626.1 600,632.6 640,633.8 680,629.5 720,620.7 760,609.5 800,598.7 840,590.9 880,588.1 920,590.9 960,598.6 1000,609.4 1040,620.6 1080,629.4 1120,633.8 1160,632.6 1200,626.2" fill="none" stroke="#dc2626" stroke-opacity="0.31" stroke-width="0.8"/><polyline points="0,628.8 40,631.0 80,633.0 120,634.6 160,635.8 200,636.3 240,636.2 280,635.5 320,634.2 360,632.4 400,630.3 440,628.1 480,625.9 520,624.0 560,622.5 600,621.5 640,621.2 680,621.4 720,622.4 760,623.8 800,625.7 840,627.8 880,630.1 920,632.2 960,634.0 1000,635.4 1040,636.2 1080,636.3 1120,635.9 1160,634.8 1200,633.2" fill="none" stroke="#dc2626" stroke-opacity="0.19" stroke-width="1.3"/><polyline points="0,646.7 40,650.4 80,653.8 120,656.6 160,658.6 200,659.5 240,659.4 280,658.2 320,656.1 360,653.1 400,649.6 440,645.9 480,642.2 520,638.9 560,636.3 600,634.5 640,633.8 680,634.1 720,635.5 760,637.9 800,641.0 840,644.5 880,648.3 920,651.9 960,655.1 1000,657.5 1040,659.1 1080,659.6 1120,659.0 1160,657.4 1200,654.9" fill="none" stroke="#dc2626" stroke-opacity="0.37" stroke-width="1.7"/><filter id="n"><feTurbulence type="fractalNoise" baseFrequency="0.8" numOctaves="4"/></filter><rect width="1200" height="675" filter="url(#n)" opacity=".05"/></svg>