<svg xmlns="http://www.w3.org/2000/svg" viewBox="0 0 1200 675" width="1200" height="675" role="img" aria-label=""><rect width="1200" height="675" fill="#0a0a0b"/><defs><radialGradient id="g" cx="50%" cy="50%"><stop offset="0%" stop-color="#ea580c" stop-opacity=".28"/><stop offset="100%" stop-color="#ea580c" stop-opacity="0"/></radialGradient><filter id="b"><feGaussianBlur stdDeviation="27"/></filter></defs><ellipse cx="590" cy="404" rx="600" ry="371" fill="url(#g)"/><rect x="168" y="0" width="2" height="2" fill="#ea580c" fill-opacity="0.45"/><rect x="235" y="0" width="6" height="6" fill="#ea580c" fill-opacity="0.84"/><rect x="437" y="0" width="4" height="4" fill="#ea580c" fill-opacity="0.72"/><rect x="1143" y="0" width="4" height="4" fill="#ea580c" fill-opacity="0.31"/><rect x="269" y="33" width="2" height="2" fill="#ea580c" fill-opacity="0.68"/><rect x="437" y="33" width="3" height="3" fill="#ea580c" fill-opacity="0.66"/><rect x="538" y="33" width="3" height="3" fill="#ea580c" fill-opacity="0.27"/><rect x="807" y="33" width="3" height="3" fill="#ea580c" fill-opacity="0.41"/><rect x="841" y="33" width="4" height="4" fill="#ea580c" fill-opacity="0.72"/><rect x="1043" y="33" width="5" height="5" fill="#ea580c" fill-opacity="0.58"/><rect x="1076" y="33" width="4" height="4" fill="#ea580c" fill-opacity="0.83"/><rect x="1177" y="33" width="3" height="3" fill="#ea580c" fill-opacity="0.39"/><rect x="0" y="67" width="5" height="5" fill="#ea580c" fill-opacity="0.65"/><rect x="33" y="67" width="4" height="4" fill="#ea580c" fill-opacity="0.53"/><rect x="100" y="67" width="2" height="2" fill="#ea580c" fill-opacity="0.69"/><rect x="201" y="67" width="5" height="5" fill="#ea580c" fill-opacity="0.81"/><rect x="538" y="67" width="2" height="2" fill="#ea580c" fill-opacity="0.56"/><rect x="942" y="67" width="2" height="2" fill="#ea580c" fill-opacity="0.26"/><rect x="975" y="67" width="3" height="3" fill="#ea580c" fill-opacity="0.75"/><rect x="1076" y="67" width="2" height="2" fill="#ea580c" fill-opacity="0.35"/><rect x="1110" y="67" width="2" height="2" fill="#ea580c" fill-opacity="0.84"/><rect x="1177" y="67" width="3" height="3" fill="#ea580c" fill-opacity="0.43"/><rect x="134" y="100" width="3" height="3" fill="#ea580c" fill-opacity="0.58"/><rect x="672" y="100" width="3" height="3" fill="#ea580c" fill-opacity="0.61"/><rect x="740" y="100" width="2" height="2" fill="#ea580c" fill-opacity="0.84"/><rect x="67" y="134" width="4" height="4" fill="#ea580c" fill-opacity="0.27"/><rect x="168" y="134" width="4" height="4" fill="#ea580c" fill-opacity="0.27"/><rect x="403" y="134" width="2" height="2" fill="#ea580c" fill-opacity="0.41"/><rect x="571" y="134" width="4" height="4" fill="#ea580c" fill-opacity="0.37"/><rect x="740" y="134" width="3" height="3" fill="#ea580c" fill-opacity="0.61"/><rect x="841" y="134" width="5" height="5" fill="#ea580c" fill-opacity="0.46"/><rect x="975" y="134" width="6" height="6" fill="#ea580c" fill-opacity="0.83"/><rect x="1076" y="134" width="4" height="4" fill="#ea580c" fill-opacity="0.66"/><rect x="370" y="168" width="5" height="5" fill="#ea580c" fill-opacity="0.31"/><rect x="403" y="168" width="5" height="5" fill="#ea580c" fill-opacity="0.73"/><rect x="437" y="168" width="6" height="6" fill="#ea580c" fill-opacity="0.78"/><rect x="639" y="168" width="2" height="2" fill="#ea580c" fill-opacity="0.84"/><rect x="841" y="168" width="6" height="6" fill="#ea580c" fill-opacity="0.30"/><rect x="1143" y="168" width="5" height="5" fill="#ea580c" fill-opacity="0.58"/><rect x="201" y="201" width="3" height="3" fill="#ea580c" fill-opacity="0.41"/><rect x="437" y="201" width="3" height="3" fill="#ea580c" fill-opacity="0.43"/><rect x="706" y="201" width="2" height="2" fill="#ea580c" fill-opacity="0.28"/><rect x="67" y="235" width="4" height="4" fill="#ea580c" fill-opacity="0.49"/><rect x="100" y="235" width="2" height="2" fill="#ea580c" fill-opacity="0.82"/><rect x="302" y="235" width="6" height="6" fill="#ea580c" fill-opacity="0.26"/><rect x="706" y="235" width="6" height="6" fill="#ea580c" fill-opacity="0.46"/><rect x="807" y="235" width="5" height="5" fill="#ea580c" fill-opacity="0.80"/><rect x="33" y="269" width="6" height="6" fill="#ea580c" fill-opacity="0.42"/><rect x="134" y="269" width="4" height="4" fill="#ea580c" fill-opacity="0.39"/><rect x="302" y="269" width="2" height="2" fill="#ea580c" fill-opacity="0.57"/><rect x="571" y="269" width="6" height="6" fill="#ea580c" fill-opacity="0.61"/><rect x="1143" y="269" width="3" height="3" fill="#ea580c" fill-opacity="0.64"/><rect x="471" y="302" width="2" height="2" fill="#ea580c" fill-opacity="0.61"/><rect x="538" y="302" width="5" height="5" fill="#ea580c" fill-opacity="0.40"/><rect x="571" y="302" width="3" height="3" fill="#ea580c" fill-opacity="0.37"/><rect x="605" y="302" width="4" height="4" fill="#ea580c" fill-opacity="0.40"/><rect x="740" y="302" width="4" height="4" fill="#ea580c" fill-opacity="0.36"/><rect x="975" y="302" width="5" height="5" fill="#ea580c" fill-opacity="0.54"/><rect x="1110" y="302" width="5" height="5" fill="#ea580c" fill-opacity="0.67"/><rect x="1177" y="302" width="3" height="3" fill="#ea580c" fill-opacity="0.29"/><rect x="33" y="336" width="6" height="6" fill="#ea580c" fill-opacity="0.73"/><rect x="168" y="336" width="3" height="3" fill="#ea580c" fill-opacity="0.66"/><rect x="403" y="336" width="6" height="6" fill="#ea580c" fill-opacity="0.79"/><rect x="437" y="336" width="4" height="4" fill="#ea580c" fill-opacity="0.70"/><rect x="639" y="336" width="2" height="2" fill="#ea580c" fill-opacity="0.79"/><rect x="100" y="370" width="6" height="6" fill="#ea580c" fill-opacity="0.81"/><rect x="235" y="370" width="2" height="2" fill="#ea580c" fill-opacity="0.76"/><rect x="908" y="370" width="2" height="2" fill="#ea580c" fill-opacity="0.80"/><rect x="975" y="370" width="6" height="6" fill="#ea580c" fill-opacity="0.82"/><rect x="336" y="403" width="3" height="3" fill="#ea580c" fill-opacity="0.58"/><rect x="67" y="437" width="3" height="3" fill="#ea580c" fill-opacity="0.39"/><rect x="134" y="437" width="4" height="4" fill="#ea580c" fill-opacity="0.69"/><rect x="403" y="437" width="4" height="4" fill="#ea580c" fill-opacity="0.48"/><rect x="908" y="437" width="6" height="6" fill="#ea580c" fill-opacity="0.45"/><rect x="1076" y="437" width="3" height="3" fill="#ea580c" fill-opacity="0.26"/><rect x="168" y="471" width="5" height="5" fill="#ea580c" fill-opacity="0.50"/><rect x="235" y="471" width="4" height="4" fill="#ea580c" fill-opacity="0.39"/><rect x="269" y="471" width="2" height="2" fill="#ea580c" fill-opacity="0.46"/><rect x="773" y="471" width="6" height="6" fill="#ea580c" fill-opacity="0.45"/><rect x="975" y="471" width="4" height="4" fill="#ea580c" fill-opacity="0.38"/><rect x="1143" y="471" width="3" height="3" fill="#ea580c" fill-opacity="0.28"/><rect x="571" y="504" width="3" height="3" fill="#ea580c" fill-opacity="0.32"/><rect x="807" y="504" width="5" height="5" fill="#ea580c" fill-opacity="0.45"/><rect x="1043" y="504" width="5" height="5" fill="#ea580c" fill-opacity="0.47"/><rect x="235" y="538" width="2" height="2" fill="#ea580c" fill-opacity="0.65"/><rect x="370" y="538" width="6" height="6" fill="#ea580c" fill-opacity="0.69"/><rect x="571" y="538" width="2" height="2" fill="#ea580c" fill-opacity="0.53"/><rect x="773" y="538" width="2" height="2" fill="#ea580c" fill-opacity="0.73"/><rect x="1110" y="538" width="6" height="6" fill="#ea580c" fill-opacity="0.27"/><rect x="773" y="571" width="3" height="3" fill="#ea580c" fill-opacity="0.66"/><rect x="841" y="571" width="5" height="5" fill="#ea580c" fill-opacity="0.48"/><rect x="1009" y="571" width="3" height="3" fill="#ea580c" fill-opacity="0.44"/><rect x="1043" y="571" width="3" height="3" fill="#ea580c" fill-opacity="0.61"/><rect x="67" y="605" width="4" height="4" fill="#ea580c" fill-opacity="0.26"/><rect x="370" y="605" width="4" height="4" fill="#ea580c" fill-opacity="0.33"/><rect x="571" y="605" width="3" height="3" fill="#ea580c" fill-opacity="0.41"/><rect x="706" y="605" width="6" height="6" fill="#ea580c" fill-opacity="0.68"/><rect x="1043" y="605" width="6" height="6" fill="#ea580c" fill-opacity="0.46"/><rect x="201" y="639" width="3" height="3" fill="#ea580c" fill-opacity="0.44"/><rect x="269" y="639" width="2" height="2" fill="#ea580c" fill-opacity="0.68"/><rect x="706" y="639" width="3" height="3" fill="#ea580c" fill-opacity="0.40"/><rect x="740" y="639" width="3" height="3" fill="#ea580c" fill-opacity="0.61"/><rect x="841" y="639" width="2" height="2" fill="#ea580c" fill-opacity="0.65"/><rect x="942" y="639" width="3" height="3" fill="#ea580c" fill-opacity="0.58"/><rect x="201" y="672" width="4" height="4" fill="#ea580c" fill-opacity="0.75"/><rect x="571" y="672" width="2" height="2" fill="#ea580c" fill-opacity="0.56"/><rect x="706" y="672" width="3" height="3" fill="#ea580c" fill-opacity="0.65"/><rect x="773" y="672" width="6" height="6" fill="#ea580c" fill-opacity="0.80"/><rect x="975" y="672" width="5" height="5" fill="#ea580c" fill-opacity="0.41"/><rect x="1009" y="672" width="4" height="4" fill="#ea580c" fill-opacity="0.26"/><rect x="0" y="210" width="1200" height="1" fill="#fdba74" fill-opacity="0.23"/><rect x="0" y="128" width="1200" height="1" fill="#fdba74" fill-opacity="0.16"/><rect x="0" y="278" width="1200" height="2" fill="#fdba74" fill-opacity="0.17"/><filter id="n"><feTurbulence type="fractalNoise" baseFrequency="0.8" numOctaves="4"/></filter><rect width="1200" height="675" filter="url(#n)" opacity=".05"/></svg>