<svg xmlns="http://www.w3.org/2000/svg" viewBox="0 0 1200 675" width="1200" height="675" role="img" aria-label=""><rect width="1200" height="675" fill="#0a0a0b"/><defs><radialGradient id="g" cx="50%" cy="50%"><stop offset="0%" stop-color="#dc2626" stop-opacity=".28"/><stop offset="100%" stop-color="#dc2626" stop-opacity="0"/></radialGradient><filter id="b"><feGaussianBlur stdDeviation="20"/></filter></defs><ellipse cx="696" cy="295" rx="600" ry="371" fill="url(#g)"/><rect x="210" y="0" width="4" height="4" fill="#dc2626" fill-opacity="0.57"/><rect x="421" y="0" width="6" height="6" fill="#dc2626" fill-opacity="0.72"/><rect x="451" y="0" width="2" height="2" fill="#dc2626" fill-opacity="0.84"/><rect x="541" y="0" width="5" height="5" fill="#dc2626" fill-opacity="0.63"/><rect x="661" y="0" width="3" height="3" fill="#dc2626" fill-opacity="0.72"/><rect x="902" y="0" width="6" height="6" fill="#dc2626" fill-opacity="0.78"/><rect x="0" y="30" width="6" height="6" fill="#dc2626" fill-opacity="0.60"/><rect x="180" y="30" width="6" height="6" fill="#dc2626" fill-opacity="0.30"/><rect x="240" y="30" width="5" height="5" fill="#dc2626" fill-opacity="0.83"/><rect x="270" y="30" width="5" height="5" fill="#dc2626" fill-opacity="0.39"/><rect x="541" y="30" width="4" height="4" fill="#dc2626" fill-opacity="0.38"/><rect x="751" y="30" width="3" height="3" fill="#dc2626" fill-opacity="0.40"/><rect x="1052" y="30" width="3" height="3" fill="#dc2626" fill-opacity="0.27"/><rect x="30" y="60" width="4" height="4" fill="#dc2626" fill-opacity="0.78"/><rect x="90" y="60" width="4" height="4" fill="#dc2626" fill-opacity="0.65"/><rect x="661" y="60" width="5" height="5" fill="#dc2626" fill-opacity="0.84"/><rect x="781" y="60" width="3" height="3" fill="#dc2626" fill-opacity="0.55"/><rect x="902" y="60" width="2" height="2" fill="#dc2626" fill-opacity="0.63"/><rect x="240" y="90" width="4" height="4" fill="#dc2626" fill-opacity="0.69"/><rect x="300" y="90" width="3" height="3" fill="#dc2626" fill-opacity="0.37"/><rect x="511" y="90" width="6" height="6" fill="#dc2626" fill-opacity="0.80"/><rect x="751" y="90" width="2" height="2" fill="#dc2626" fill-opacity="0.37"/><rect x="811" y="90" width="2" height="2" fill="#dc2626" fill-opacity="0.67"/><rect x="1112" y="90" width="4" height="4" fill="#dc2626" fill-opacity="0.57"/><rect x="150" y="120" width="6" height="6" fill="#dc2626" fill-opacity="0.73"/><rect x="240" y="120" width="4" height="4" fill="#dc2626" fill-opacity="0.72"/><rect x="571" y="120" width="3" height="3" fill="#dc2626" fill-opacity="0.81"/><rect x="631" y="120" width="4" height="4" fill="#dc2626" fill-opacity="0.74"/><rect x="1052" y="120" width="4" height="4" fill="#dc2626" fill-opacity="0.57"/><rect x="240" y="150" width="2" height="2" fill="#dc2626" fill-opacity="0.82"/><rect x="360" y="150" width="4" height="4" fill="#dc2626" fill-opacity="0.79"/><rect x="451" y="150" width="2" height="2" fill="#dc2626" fill-opacity="0.34"/><rect x="511" y="150" width="3" height="3" fill="#dc2626" fill-opacity="0.32"/><rect x="421" y="180" width="6" height="6" fill="#dc2626" fill-opacity="0.68"/><rect x="601" y="180" width="5" height="5" fill="#dc2626" fill-opacity="0.37"/><rect x="631" y="180" width="6" height="6" fill="#dc2626" fill-opacity="0.53"/><rect x="932" y="180" width="2" height="2" fill="#dc2626" fill-opacity="0.54"/><rect x="1022" y="180" width="6" height="6" fill="#dc2626" fill-opacity="0.29"/><rect x="90" y="210" width="5" height="5" fill="#dc2626" fill-opacity="0.71"/><rect x="240" y="210" width="6" height="6" fill="#dc2626" fill-opacity="0.81"/><rect x="390" y="210" width="3" height="3" fill="#dc2626" fill-opacity="0.82"/><rect x="872" y="210" width="6" height="6" fill="#dc2626" fill-opacity="0.73"/><rect x="962" y="210" width="3" height="3" fill="#dc2626" fill-opacity="0.67"/><rect x="0" y="240" width="3" height="3" fill="#dc2626" fill-opacity="0.26"/><rect x="721" y="240" width="5" height="5" fill="#dc2626" fill-opacity="0.36"/><rect x="992" y="240" width="3" height="3" fill="#dc2626" fill-opacity="0.56"/><rect x="1112" y="240" width="2" height="2" fill="#dc2626" fill-opacity="0.67"/><rect x="60" y="270" width="2" height="2" fill="#dc2626" fill-opacity="0.82"/><rect x="240" y="270" width="6" height="6" fill="#dc2626" fill-opacity="0.66"/><rect x="360" y="270" width="6" height="6" fill="#dc2626" fill-opacity="0.43"/><rect x="902" y="270" width="6" height="6" fill="#dc2626" fill-opacity="0.73"/><rect x="962" y="270" width="4" height="4" fill="#dc2626" fill-opacity="0.54"/><rect x="30" y="300" width="2" height="2" fill="#dc2626" fill-opacity="0.33"/><rect x="60" y="300" width="2" height="2" fill="#dc2626" fill-opacity="0.60"/><rect x="300" y="300" width="3" height="3" fill="#dc2626" fill-opacity="0.64"/><rect x="451" y="300" width="3" height="3" fill="#dc2626" fill-opacity="0.27"/><rect x="481" y="300" width="2" height="2" fill="#dc2626" fill-opacity="0.53"/><rect x="631" y="300" width="2" height="2" fill="#dc2626" fill-opacity="0.26"/><rect x="932" y="300" width="3" height="3" fill="#dc2626" fill-opacity="0.27"/><rect x="962" y="300" width="3" height="3" fill="#dc2626" fill-opacity="0.36"/><rect x="1022" y="300" width="2" height="2" fill="#dc2626" fill-opacity="0.66"/><rect x="1082" y="300" width="2" height="2" fill="#dc2626" fill-opacity="0.67"/><rect x="210" y="330" width="2" height="2" fill="#dc2626" fill-opacity="0.80"/><rect x="601" y="330" width="6" height="6" fill="#dc2626" fill-opacity="0.38"/><rect x="270" y="360" width="4" height="4" fill="#dc2626" fill-opacity="0.57"/><rect x="451" y="360" width="5" height="5" fill="#dc2626" fill-opacity="0.84"/><rect x="842" y="360" width="2" height="2" fill="#dc2626" fill-opacity="0.51"/><rect x="992" y="360" width="6" height="6" fill="#dc2626" fill-opacity="0.36"/><rect x="1112" y="360" width="6" height="6" fill="#dc2626" fill-opacity="0.56"/><rect x="180" y="421" width="3" height="3" fill="#dc2626" fill-opacity="0.38"/><rect x="240" y="421" width="6" height="6" fill="#dc2626" fill-opacity="0.76"/><rect x="872" y="421" width="5" height="5" fill="#dc2626" fill-opacity="0.57"/><rect x="902" y="421" width="5" height="5" fill="#dc2626" fill-opacity="0.81"/><rect x="1022" y="421" width="5" height="5" fill="#dc2626" fill-opacity="0.46"/><rect x="1112" y="421" width="3" height="3" fill="#dc2626" fill-opacity="0.79"/><rect x="150" y="451" width="3" height="3" fill="#dc2626" fill-opacity="0.56"/><rect x="270" y="451" width="3" height="3" fill="#dc2626" fill-opacity="0.62"/><rect x="360" y="451" width="3" height="3" fill="#dc2626" fill-opacity="0.74"/><rect x="390" y="451" width="4" height="4" fill="#dc2626" fill-opacity="0.50"/><rect x="451" y="451" width="5" height="5" fill="#dc2626" fill-opacity="0.78"/><rect x="541" y="451" width="3" height="3" fill="#dc2626" fill-opacity="0.63"/><rect x="872" y="451" width="2" height="2" fill="#dc2626" fill-opacity="0.61"/><rect x="721" y="481" width="4" height="4" fill="#dc2626" fill-opacity="0.37"/><rect x="842" y="481" width="4" height="4" fill="#dc2626" fill-opacity="0.71"/><rect x="1082" y="481" width="5" height="5" fill="#dc2626" fill-opacity="0.53"/><rect x="120" y="511" width="6" height="6" fill="#dc2626" fill-opacity="0.77"/><rect x="210" y="511" width="4" height="4" fill="#dc2626" fill-opacity="0.48"/><rect x="962" y="511" width="2" height="2" fill="#dc2626" fill-opacity="0.38"/><rect x="1082" y="511" width="5" height="5" fill="#dc2626" fill-opacity="0.77"/><rect x="150" y="541" width="4" height="4" fill="#dc2626" fill-opacity="0.40"/><rect x="390" y="541" width="6" height="6" fill="#dc2626" fill-opacity="0.38"/><rect x="571" y="541" width="3" height="3" fill="#dc2626" fill-opacity="0.33"/><rect x="1082" y="541" width="4" height="4" fill="#dc2626" fill-opacity="0.59"/><rect x="90" y="571" width="6" height="6" fill="#dc2626" fill-opacity="0.58"/><rect x="240" y="571" width="4" height="4" fill="#dc2626" fill-opacity="0.41"/><rect x="842" y="571" width="3" height="3" fill="#dc2626" fill-opacity="0.57"/><rect x="180" y="601" width="6" height="6" fill="#dc2626" fill-opacity="0.37"/><rect x="210" y="601" width="6" height="6" fill="#dc2626" fill-opacity="0.26"/><rect x="390" y="601" width="3" height="3" fill="#dc2626" fill-opacity="0.44"/><rect x="1112" y="601" width="2" height="2" fill="#dc2626" fill-opacity="0.75"/><rect x="120" y="631" width="4" height="4" fill="#dc2626" fill-opacity="0.63"/><rect x="300" y="631" width="3" height="3" fill="#dc2626" fill-opacity="0.56"/><rect x="631" y="631" width="2" height="2" fill="#dc2626" fill-opacity="0.36"/><rect x="842" y="631" width="6" height="6" fill="#dc2626" fill-opacity="0.38"/><rect x="1142" y="631" width="2" height="2" fill="#dc2626" fill-opacity="0.79"/><rect x="120" y="661" width="6" height="6" fill="#dc2626" fill-opacity="0.82"/><rect x="180" y="661" width="4" height="4" fill="#dc2626" fill-opacity="0.75"/><rect x="240" y="661" width="6" height="6" fill="#dc2626" fill-opacity="0.40"/><rect x="270" y="661" width="3" height="3" fill="#dc2626" fill-opacity="0.39"/><rect x="300" y="661" width="2" height="2" fill="#dc2626" fill-opacity="0.31"/><rect x="781" y="661" width="3" height="3" fill="#dc2626" fill-opacity="0.45"/><rect x="872" y="661" width="5" height="5" fill="#dc2626" fill-opacity="0.40"/><rect x="962" y="661" width="5" height="5" fill="#dc2626" fill-opacity="0.76"/><rect x="992" y="661" width="4" height="4" fill="#dc2626" fill-opacity="0.33"/><rect x="0" y="513" width="1200" height="1" fill="#fca5a5" fill-opacity="0.26"/><rect x="0" y="577" width="1200" height="1" fill="#fca5a5" fill-opacity="0.11"/><filter id="n"><feTurbulence type="fractalNoise" baseFrequency="0.8" numOctaves="4"/></filter><rect width="1200" height="675" filter="url(#n)" opacity=".05"/></svg>