<svg xmlns="http://www.w3.org/2000/svg" viewBox="0 0 1200 675" width="1200" height="675" role="img" aria-label=""><rect width="1200" height="675" fill="#0a0a0b"/><defs><radialGradient id="g" cx="50%" cy="50%"><stop offset="0%" stop-color="#dc2626" stop-opacity=".28"/><stop offset="100%" stop-color="#dc2626" stop-opacity="0"/></radialGradient><filter id="b"><feGaussianBlur stdDeviation="19"/></filter></defs><ellipse cx="603" cy="354" rx="600" ry="371" fill="url(#g)"/><line x1="603" y1="354" x2="545" y2="340" stroke="#dc2626" stroke-opacity="0.11" stroke-width="1.6"/><line x1="603" y1="354" x2="473" y2="231" stroke="#dc2626" stroke-opacity="0.14" stroke-width="1.2"/><line x1="603" y1="354" x2="564" y2="518" stroke="#dc2626" stroke-opacity="0.13" stroke-width="0.6"/><line x1="603" y1="354" x2="427" y2="176" stroke="#dc2626" stroke-opacity="0.40" stroke-width="1.6"/><line x1="603" y1="354" x2="415" y2="259" stroke="#dc2626" stroke-opacity="0.23" stroke-width="0.6"/><line x1="603" y1="354" x2="650" y2="328" stroke="#dc2626" stroke-opacity="0.42" stroke-width="1.2"/><line x1="603" y1="354" x2="490" y2="194" stroke="#dc2626" stroke-opacity="0.19" stroke-width="1.5"/><line x1="603" y1="354" x2="553" y2="201" stroke="#dc2626" stroke-opacity="0.34" stroke-width="1.8"/><line x1="603" y1="354" x2="468" y2="123" stroke="#dc2626" stroke-opacity="0.18" stroke-width="1.2"/><line x1="603" y1="354" x2="651" y2="468" stroke="#dc2626" stroke-opacity="0.39" stroke-width="0.7"/><line x1="603" y1="354" x2="556" y2="384" stroke="#dc2626" stroke-opacity="0.28" stroke-width="1.3"/><line x1="603" y1="354" x2="619" y2="611" stroke="#dc2626" stroke-opacity="0.17" stroke-width="0.9"/><line x1="603" y1="354" x2="753" y2="87" stroke="#dc2626" stroke-opacity="0.20" stroke-width="1.5"/><line x1="603" y1="354" x2="708" y2="489" stroke="#dc2626" stroke-opacity="0.16" stroke-width="1.3"/><line x1="603" y1="354" x2="474" y2="343" stroke="#dc2626" stroke-opacity="0.21" stroke-width="0.8"/><line x1="603" y1="354" x2="816" y2="512" stroke="#dc2626" stroke-opacity="0.27" stroke-width="1.8"/><line x1="603" y1="354" x2="565" y2="280" stroke="#dc2626" stroke-opacity="0.28" stroke-width="0.8"/><line x1="603" y1="354" x2="539" y2="360" stroke="#dc2626" stroke-opacity="0.29" stroke-width="1.3"/><line x1="603" y1="354" x2="371" y2="228" stroke="#dc2626" stroke-opacity="0.22" stroke-width="1.0"/><line x1="603" y1="354" x2="679" y2="384" stroke="#dc2626" stroke-opacity="0.19" stroke-width="1.6"/><line x1="603" y1="354" x2="605" y2="304" stroke="#dc2626" stroke-opacity="0.28" stroke-width="1.1"/><line x1="603" y1="354" x2="564" y2="325" stroke="#dc2626" stroke-opacity="0.19" stroke-width="1.8"/><line x1="603" y1="354" x2="610" y2="303" stroke="#dc2626" stroke-opacity="0.43" stroke-width="1.2"/><line x1="603" y1="354" x2="637" y2="202" stroke="#dc2626" stroke-opacity="0.24" stroke-width="1.0"/><line x1="603" y1="354" x2="623" y2="469" stroke="#dc2626" stroke-opacity="0.20" stroke-width="0.8"/><line x1="603" y1="354" x2="727" y2="268" stroke="#dc2626" stroke-opacity="0.38" stroke-width="0.9"/><circle cx="603" cy="354" r="11" fill="#fca5a5" filter="url(#b)"/><filter id="n"><feTurbulence type="fractalNoise" baseFrequency="0.8" numOctaves="4"/></filter><rect width="1200" height="675" filter="url(#n)" opacity=".05"/></svg>