<svg xmlns="http://www.w3.org/2000/svg" viewBox="0 0 1200 675" width="1200" height="675" role="img">
<defs>
<radialGradient id="glow" cx="50%" cy="50%"><stop offset="0%" stop-color="#dc2626" stop-opacity=".22"/><stop offset="100%" stop-color="#dc2626" stop-opacity="0"/></radialGradient>
<filter id="grain"><feTurbulence type="fractalNoise" baseFrequency=".8" numOctaves="4"/></filter>
<pattern id="grid" width="48" height="48" patternUnits="userSpaceOnUse"><path d="M48 0H0v48" fill="none" stroke="#1b1b20" stroke-width="1"/></pattern>
</defs>
<style>
@media (prefers-reduced-motion: reduce) { * { animation: none !important; } }

.st{opacity:1;animation:sq 4.5s infinite}
@keyframes sq{0%,5%{opacity:.3;transform:translateX(-7px)}18%,88%{opacity:1;transform:none}100%{opacity:.3}}

</style>
<rect width="1200" height="675" fill="#0a0a0b"/>
<rect width="1200" height="675" fill="url(#grid)"/>
<ellipse cx="600.0" cy="337.5" rx="576.0" ry="371.25000000000006" fill="url(#glow)"/>

<g font-family="monospace">
  <text x="230" y="196" fill="#6b665c" font-size="11">CVE-2026-23760 — SmarterMail</text>
  <g class="st" style="animation-delay:0s">
        <rect x="230" y="220" width="330" height="50" rx="3" fill="#101014" stroke="#6b665c" stroke-width="1"/>
        <text x="252" y="251" font-family="monospace" font-size="14" fill="#6b665c">MailService.exe</text>
        <path d="M395,270 l0,16 M389,280 l6,6 l6,-6" stroke="#6b665c" fill="none"/>
        </g><g class="st" style="animation-delay:0.7s">
        <rect x="230" y="292" width="330" height="50" rx="3" fill="#101014" stroke="#fca5a5" stroke-width="1"/>
        <text x="252" y="323" font-family="monospace" font-size="14" fill="#fca5a5">cmd.exe</text>
        <path d="M395,342 l0,16 M389,352 l6,6 l6,-6" stroke="#6b665c" fill="none"/>
        </g><g class="st" style="animation-delay:1.4s">
        <rect x="230" y="364" width="330" height="50" rx="3" fill="#101014" stroke="#fca5a5" stroke-width="1"/>
        <text x="252" y="395" font-family="monospace" font-size="14" fill="#fca5a5">msiexec.exe</text>
        <path d="M395,414 l0,16 M389,424 l6,6 l6,-6" stroke="#6b665c" fill="none"/>
        </g><g class="st" style="animation-delay:2.1s">
        <rect x="230" y="436" width="330" height="50" rx="3" fill="#101014" stroke="#dc2626" stroke-width="1"/>
        <text x="252" y="467" font-family="monospace" font-size="14" fill="#dc2626">supabase.co/v4.msi</text>
        
        </g>
  <text x="620" y="252" fill="#6b665c" font-size="11">un mail server non ha</text>
  <text x="620" y="272" fill="#6b665c" font-size="11">alcun motivo di fare</text>
  <text x="620" y="292" fill="#dc2626" font-size="11">nessuna di queste cose</text>
  <text x="620" y="360" fill="#6b665c" font-size="10">GitHub -> blocklist</text>
  <text x="620" y="382" fill="#dc2626" font-size="10">Supabase -> ancora pulito</text>
  <text x="230" y="556" fill="#6b665c" font-size="11">fermato in staging: raro successo difensivo documentato</text>
</g>
<rect width="1200" height="675" filter="url(#grain)" opacity=".05"/>
</svg>