<svg xmlns="http://www.w3.org/2000/svg" viewBox="0 0 1200 675" width="1200" height="675" role="img" aria-label=""><rect width="1200" height="675" fill="#0a0a0b"/><defs><radialGradient id="g" cx="50%" cy="50%"><stop offset="0%" stop-color="#dc2626" stop-opacity=".28"/><stop offset="100%" stop-color="#dc2626" stop-opacity="0"/></radialGradient><filter id="b"><feGaussianBlur stdDeviation="25"/></filter></defs><ellipse cx="561" cy="243" rx="600" ry="371" fill="url(#g)"/><rect x="227" y="0" width="2" height="2" fill="#dc2626" fill-opacity="0.54"/><rect x="363" y="0" width="6" height="6" fill="#dc2626" fill-opacity="0.60"/><rect x="454" y="0" width="4" height="4" fill="#dc2626" fill-opacity="0.74"/><rect x="591" y="0" width="5" height="5" fill="#dc2626" fill-opacity="0.34"/><rect x="818" y="0" width="4" height="4" fill="#dc2626" fill-opacity="0.37"/><rect x="955" y="0" width="2" height="2" fill="#dc2626" fill-opacity="0.85"/><rect x="0" y="45" width="6" height="6" fill="#dc2626" fill-opacity="0.65"/><rect x="864" y="45" width="3" height="3" fill="#dc2626" fill-opacity="0.34"/><rect x="1091" y="45" width="5" height="5" fill="#dc2626" fill-opacity="0.48"/><rect x="1137" y="45" width="6" height="6" fill="#dc2626" fill-opacity="0.39"/><rect x="45" y="90" width="4" height="4" fill="#dc2626" fill-opacity="0.63"/><rect x="363" y="90" width="4" height="4" fill="#dc2626" fill-opacity="0.54"/><rect x="454" y="90" width="2" height="2" fill="#dc2626" fill-opacity="0.63"/><rect x="591" y="90" width="2" height="2" fill="#dc2626" fill-opacity="0.47"/><rect x="636" y="90" width="5" height="5" fill="#dc2626" fill-opacity="0.27"/><rect x="818" y="90" width="3" height="3" fill="#dc2626" fill-opacity="0.75"/><rect x="45" y="136" width="2" height="2" fill="#dc2626" fill-opacity="0.53"/><rect x="363" y="136" width="2" height="2" fill="#dc2626" fill-opacity="0.67"/><rect x="409" y="136" width="6" height="6" fill="#dc2626" fill-opacity="0.46"/><rect x="454" y="136" width="5" height="5" fill="#dc2626" fill-opacity="0.54"/><rect x="591" y="136" width="6" height="6" fill="#dc2626" fill-opacity="0.54"/><rect x="45" y="181" width="3" height="3" fill="#dc2626" fill-opacity="0.74"/><rect x="136" y="181" width="5" height="5" fill="#dc2626" fill-opacity="0.25"/><rect x="272" y="181" width="5" height="5" fill="#dc2626" fill-opacity="0.59"/><rect x="727" y="181" width="3" height="3" fill="#dc2626" fill-opacity="0.83"/><rect x="1091" y="181" width="3" height="3" fill="#dc2626" fill-opacity="0.46"/><rect x="1137" y="181" width="3" height="3" fill="#dc2626" fill-opacity="0.42"/><rect x="955" y="227" width="3" height="3" fill="#dc2626" fill-opacity="0.36"/><rect x="1091" y="227" width="2" height="2" fill="#dc2626" fill-opacity="0.37"/><rect x="45" y="272" width="2" height="2" fill="#dc2626" fill-opacity="0.65"/><rect x="272" y="272" width="6" height="6" fill="#dc2626" fill-opacity="0.78"/><rect x="818" y="272" width="4" height="4" fill="#dc2626" fill-opacity="0.60"/><rect x="1046" y="272" width="6" height="6" fill="#dc2626" fill-opacity="0.48"/><rect x="409" y="318" width="3" height="3" fill="#dc2626" fill-opacity="0.84"/><rect x="682" y="318" width="2" height="2" fill="#dc2626" fill-opacity="0.40"/><rect x="1091" y="318" width="6" height="6" fill="#dc2626" fill-opacity="0.56"/><rect x="45" y="363" width="3" height="3" fill="#dc2626" fill-opacity="0.69"/><rect x="272" y="363" width="2" height="2" fill="#dc2626" fill-opacity="0.40"/><rect x="318" y="363" width="4" height="4" fill="#dc2626" fill-opacity="0.73"/><rect x="363" y="363" width="5" height="5" fill="#dc2626" fill-opacity="0.66"/><rect x="545" y="363" width="2" height="2" fill="#dc2626" fill-opacity="0.75"/><rect x="864" y="363" width="2" height="2" fill="#dc2626" fill-opacity="0.81"/><rect x="909" y="363" width="4" height="4" fill="#dc2626" fill-opacity="0.68"/><rect x="1091" y="363" width="4" height="4" fill="#dc2626" fill-opacity="0.44"/><rect x="227" y="409" width="4" height="4" fill="#dc2626" fill-opacity="0.69"/><rect x="773" y="409" width="2" height="2" fill="#dc2626" fill-opacity="0.28"/><rect x="864" y="409" width="4" height="4" fill="#dc2626" fill-opacity="0.84"/><rect x="1000" y="409" width="3" height="3" fill="#dc2626" fill-opacity="0.83"/><rect x="1091" y="409" width="3" height="3" fill="#dc2626" fill-opacity="0.47"/><rect x="454" y="454" width="2" height="2" fill="#dc2626" fill-opacity="0.84"/><rect x="727" y="454" width="2" height="2" fill="#dc2626" fill-opacity="0.31"/><rect x="909" y="454" width="2" height="2" fill="#dc2626" fill-opacity="0.36"/><rect x="1091" y="454" width="2" height="2" fill="#dc2626" fill-opacity="0.58"/><rect x="682" y="500" width="2" height="2" fill="#dc2626" fill-opacity="0.77"/><rect x="773" y="500" width="6" height="6" fill="#dc2626" fill-opacity="0.35"/><rect x="909" y="500" width="6" height="6" fill="#dc2626" fill-opacity="0.67"/><rect x="636" y="545" width="4" height="4" fill="#dc2626" fill-opacity="0.71"/><rect x="682" y="545" width="6" height="6" fill="#dc2626" fill-opacity="0.40"/><rect x="773" y="545" width="2" height="2" fill="#dc2626" fill-opacity="0.73"/><rect x="909" y="545" width="2" height="2" fill="#dc2626" fill-opacity="0.45"/><rect x="727" y="591" width="5" height="5" fill="#dc2626" fill-opacity="0.44"/><rect x="909" y="591" width="4" height="4" fill="#dc2626" fill-opacity="0.31"/><rect x="409" y="636" width="4" height="4" fill="#dc2626" fill-opacity="0.68"/><rect x="500" y="636" width="4" height="4" fill="#dc2626" fill-opacity="0.27"/><rect x="1137" y="636" width="3" height="3" fill="#dc2626" fill-opacity="0.44"/><rect x="0" y="199" width="1200" height="1" fill="#fca5a5" fill-opacity="0.23"/><rect x="0" y="357" width="1200" height="1" fill="#fca5a5" fill-opacity="0.23"/><filter id="n"><feTurbulence type="fractalNoise" baseFrequency="0.8" numOctaves="4"/></filter><rect width="1200" height="675" filter="url(#n)" opacity=".05"/></svg>